<svg width="17" height="20" viewBox="0 0 17 20" fill="none" xmlns="http://www.w3.org/2000/svg">
<path d="M10.9284 3.1453C11.3012 2.71569 11.5854 2.21667 11.7647 1.67691C11.9441 1.13714 12.0151 0.567267 11.9736 0C10.8292 0.0923743 9.76692 0.630595 9.01559 1.4987C8.65581 1.91477 8.38316 2.39879 8.2138 2.92212C8.04444 3.44545 7.9818 3.99744 8.02961 4.54541C8.58782 4.55006 9.13962 4.4262 9.64229 4.18341C10.145 3.94062 10.585 3.58542 10.9284 3.1453ZM13.4131 10.4811C13.4197 9.72553 13.6187 8.98415 13.9914 8.32687C14.364 7.6696 14.8979 7.11811 15.5428 6.72444C15.1358 6.13801 14.5978 5.65448 13.9714 5.31219C13.345 4.96989 12.6475 4.77825 11.9341 4.75247C10.396 4.59471 8.97615 5.64971 8.15778 5.64971C7.33941 5.64971 6.18581 4.77218 4.90402 4.7919C4.06606 4.81951 3.24955 5.06382 2.53415 5.50101C1.81874 5.93821 1.22885 6.55335 0.822029 7.28646C-0.913311 10.3036 0.378334 14.7898 2.11367 17.2252C2.90246 18.4183 3.88845 19.7691 5.18996 19.7198C6.49146 19.6705 6.91544 18.9113 8.424 18.9113C9.93256 18.9113 10.396 19.7198 11.6778 19.6902C12.9595 19.6606 13.8667 18.4676 14.6949 17.2745C15.2816 16.4084 15.7399 15.4619 16.0556 14.4645C15.2741 14.1312 14.6074 13.5764 14.1378 12.8684C13.6682 12.1605 13.4163 11.3306 13.4131 10.4811Z" fill="black"/>
</svg>
