<svg width="28" height="28" viewBox="0 0 28 28" fill="none" xmlns="http://www.w3.org/2000/svg">
<path d="M13.9634 27.2799C13.1147 27.2799 12.3151 26.8494 11.7493 26.0991L9.90421 23.6389C9.8673 23.5897 9.7197 23.5282 9.65819 23.5159H9.04316C3.9138 23.5159 0.740234 22.126 0.740234 15.213V9.06269C0.740234 3.62581 3.60628 0.759766 9.04316 0.759766H18.8837C24.3205 0.759766 27.1866 3.62581 27.1866 9.06269V15.213C27.1866 20.6499 24.3205 23.5159 18.8837 23.5159H18.2686C18.1702 23.5159 18.0841 23.5651 18.0226 23.6389L16.1775 26.0991C15.6117 26.8494 14.8122 27.2799 13.9634 27.2799ZM9.04316 2.60486C4.63954 2.60486 2.58533 4.65907 2.58533 9.06269V15.213C2.58533 20.7729 4.49193 21.6708 9.04316 21.6708H9.65819C10.2855 21.6708 10.999 22.0276 11.3803 22.5319L13.2254 24.992C13.6559 25.5578 14.2709 25.5578 14.7015 24.992L16.5465 22.5319C16.9525 21.9907 17.5921 21.6708 18.2686 21.6708H18.8837C23.2873 21.6708 25.3415 19.6166 25.3415 15.213V9.06269C25.3415 4.65907 23.2873 2.60486 18.8837 2.60486H9.04316Z" fill="#272727"/>
<path d="M20.1138 9.98523H7.81317C7.30885 9.98523 6.89062 9.56701 6.89062 9.06268C6.89062 8.55836 7.30885 8.14014 7.81317 8.14014H20.1138C20.6181 8.14014 21.0364 8.55836 21.0364 9.06268C21.0364 9.56701 20.6181 9.98523 20.1138 9.98523Z" fill="#272727"/>
<path d="M15.1936 16.1356H7.81317C7.30885 16.1356 6.89062 15.7174 6.89062 15.2131C6.89062 14.7087 7.30885 14.2905 7.81317 14.2905H15.1936C15.6979 14.2905 16.1161 14.7087 16.1161 15.2131C16.1161 15.7174 15.6979 16.1356 15.1936 16.1356Z" fill="#272727"/>
</svg>
