<svg width="20" height="20" viewBox="0 0 20 20" fill="none" xmlns="http://www.w3.org/2000/svg">
<path d="M10 0C4.47719 0 0 4.47719 0 10C0 15.5228 4.47719 20 10 20C15.5228 20 20 15.5228 20 10C20 4.47719 15.5228 0 10 0ZM15.6163 9.6875C15.5731 7.94313 15.1744 6.28813 14.4872 4.79156C15.3159 4.47219 16.1025 4.0675 16.8356 3.58719C18.3431 5.19344 19.29 7.32969 19.3675 9.6875H15.6163ZM10.4166 19.3644C10.3822 19.3659 10.3472 19.3659 10.3125 19.3672V15.6359C11.3512 15.6631 12.3584 15.8175 13.3141 16.0953C12.5575 17.3566 11.5716 18.4637 10.4166 19.3644ZM13.9216 16.2941C14.635 16.5444 15.3159 16.8619 15.96 17.2372C14.7128 18.2653 13.1947 18.9756 11.5294 19.2491C12.4694 18.3941 13.2762 17.3975 13.9216 16.2941ZM6.68562 16.0953C7.64156 15.8172 8.64875 15.6631 9.6875 15.6359V19.3669C9.65281 19.3656 9.61781 19.3656 9.58344 19.3641C8.42812 18.4638 7.4425 17.3566 6.68562 16.0953ZM8.47031 19.2488C6.805 18.9756 5.28687 18.2653 4.03969 17.2369C4.68406 16.8619 5.36469 16.5441 6.07813 16.2941C6.72344 17.3975 7.53062 18.3941 8.47031 19.2488ZM0.632813 9.6875C0.710313 7.32969 1.65688 5.19344 3.16469 3.58719C3.89781 4.06719 4.68406 4.47188 5.51313 4.79156C4.82563 6.28813 4.42687 7.94313 4.38375 9.6875H0.632813ZM13.6156 4.43625C12.5703 4.77031 11.4613 4.95812 10.3125 4.98812V0.632813C10.3472 0.634063 10.3822 0.634062 10.4166 0.635625C11.7316 1.66062 12.8272 2.95406 13.6156 4.43625ZM11.5297 0.75125C13.3872 1.05625 15.0603 1.90625 16.38 3.13313C15.7 3.56781 14.975 3.93625 14.21 4.22656C13.5244 2.91437 12.6153 1.73813 11.5297 0.75125ZM9.6875 0.632813V4.98812C8.53844 4.95812 7.42938 4.77063 6.38438 4.43625C7.17281 2.95406 8.26844 1.66062 9.58344 0.635625C9.61781 0.634062 9.65281 0.634063 9.6875 0.632813ZM5.79031 4.22656C5.02531 3.93625 4.3 3.56781 3.62031 3.13313C4.94 1.90625 6.61281 1.05625 8.47063 0.75125C7.38469 1.73813 6.47562 2.91437 5.79031 4.22656ZM6.10375 5.00281C7.23562 5.37438 8.43875 5.58813 9.6875 5.61906V9.6875H5.00969C5.05313 8.01687 5.43844 6.4325 6.10375 5.00281ZM9.6875 10.3125V15.0112C8.53625 15.04 7.42344 15.2191 6.37031 15.5391C5.54125 13.9725 5.05875 12.1966 5.00969 10.3125H9.6875ZM10.3125 15.0112V10.3125H14.9903C14.9416 12.1966 14.4588 13.9725 13.6297 15.5394C12.5766 15.2191 11.4638 15.04 10.3125 15.0112ZM10.3125 9.6875V5.61875C11.5613 5.58781 12.7644 5.37437 13.8962 5.0025C14.5616 6.43219 14.9469 8.01688 14.9903 9.68719L10.3125 9.6875ZM0.632813 10.3125H4.38375C4.43187 12.2666 4.9275 14.1081 5.77344 15.7403C4.99344 16.0212 4.25125 16.3791 3.55188 16.8016C1.82094 15.1603 0.716875 12.8662 0.632813 10.3125ZM16.4481 16.8019C15.7487 16.3791 15.0066 16.0216 14.2266 15.7406C15.0725 14.1081 15.5681 12.2669 15.6163 10.3128H19.3672C19.2831 12.8662 18.1791 15.1603 16.4481 16.8019Z" fill="#231F20"/>
</svg>
