<svg width="27" height="27" viewBox="0 0 27 27" fill="none" xmlns="http://www.w3.org/2000/svg">
<path d="M26.6279 13.7258C26.6279 6.41156 20.6676 0.451294 13.3533 0.451294C6.03906 0.451294 0.0787964 6.41156 0.0787964 13.7258C0.0787964 17.5754 1.73811 21.0401 4.36647 23.4693C4.36647 23.4826 4.36647 23.4826 4.3532 23.4959C4.48594 23.6286 4.64524 23.7348 4.77798 23.8543C4.85763 23.9207 4.924 23.987 5.00365 24.0401C5.24259 24.2393 5.50808 24.4251 5.7603 24.611C5.85322 24.6773 5.93287 24.7304 6.02579 24.7968C6.278 24.9694 6.5435 25.1287 6.82226 25.2747C6.91518 25.3278 7.02138 25.3941 7.1143 25.4472C7.37979 25.5933 7.65856 25.726 7.9506 25.8455C8.05679 25.8986 8.16299 25.9517 8.26919 25.9915C8.56122 26.111 8.85326 26.2172 9.1453 26.3101C9.2515 26.3499 9.3577 26.3897 9.46389 26.4163C9.78248 26.5092 10.1011 26.5889 10.4197 26.6685C10.5126 26.6951 10.6055 26.7216 10.7117 26.7349C11.0834 26.8145 11.4551 26.8676 11.84 26.9074C11.8931 26.9074 11.9462 26.9207 11.9993 26.934C12.4507 26.9738 12.902 27.0004 13.3533 27.0004C13.8047 27.0004 14.256 26.9738 14.6941 26.934C14.7472 26.934 14.8003 26.9207 14.8534 26.9074C15.2383 26.8676 15.61 26.8145 15.9817 26.7349C16.0746 26.7216 16.1675 26.6818 16.2737 26.6685C16.5923 26.5889 16.9242 26.5225 17.2295 26.4163C17.3357 26.3765 17.4419 26.3366 17.5481 26.3101C17.8401 26.2039 18.1454 26.111 18.4242 25.9915C18.5304 25.9517 18.6366 25.8986 18.7428 25.8455C19.0216 25.726 19.3003 25.5933 19.5791 25.4472C19.6853 25.3941 19.7782 25.3278 19.8711 25.2747C20.1366 25.1154 20.4021 24.9694 20.6676 24.7968C20.7605 24.7437 20.8402 24.6773 20.9331 24.611C21.1986 24.4251 21.4508 24.2393 21.6897 24.0401C21.7694 23.9738 21.8358 23.9074 21.9154 23.8543C22.0614 23.7348 22.2074 23.6154 22.3402 23.4959C22.3402 23.4826 22.3402 23.4826 22.3269 23.4693C24.9686 21.0401 26.6279 17.5754 26.6279 13.7258ZM19.911 20.3233C16.3136 17.9073 10.4197 17.9073 6.79571 20.3233C6.21163 20.7082 5.73375 21.1596 5.33551 21.6507C3.31778 19.6064 2.06998 16.8055 2.06998 13.7258C2.06998 7.50007 7.12757 2.44247 13.3533 2.44247C19.5791 2.44247 24.6367 7.50007 24.6367 13.7258C24.6367 16.8055 23.3889 19.6064 21.3712 21.6507C20.9862 21.1596 20.495 20.7082 19.911 20.3233Z" fill="#272727"/>
<path d="M13.3533 6.99524C10.6055 6.99524 8.37537 9.22536 8.37537 11.9732C8.37537 14.6679 10.486 16.8582 13.2869 16.9379C13.3268 16.9379 13.3799 16.9379 13.4064 16.9379C13.433 16.9379 13.4728 16.9379 13.4993 16.9379C13.5126 16.9379 13.5259 16.9379 13.5259 16.9379C16.2073 16.845 18.318 14.6679 18.3313 11.9732C18.3313 9.22536 16.1011 6.99524 13.3533 6.99524Z" fill="#272727"/>
</svg>
