<svg width="26" height="26" viewBox="0 0 26 26" fill="none" xmlns="http://www.w3.org/2000/svg">
<path d="M8.60904 16.5319C8.51154 16.5319 8.42486 16.5211 8.32736 16.4777C7.44986 16.1527 6.71319 15.5136 6.24736 14.6794C5.16403 12.7294 5.8357 10.1835 7.73154 9.00269L10.2665 7.43183C11.1982 6.85767 12.2923 6.68437 13.3323 6.9552C14.3723 7.22603 15.2498 7.90851 15.7807 8.86184C16.864 10.8118 16.1923 13.3577 14.2965 14.5386L14.0148 14.7444C13.6465 15.0044 13.1373 14.9177 12.8773 14.5602C12.6173 14.1919 12.704 13.6827 13.0615 13.4227L13.3973 13.1844C14.6107 12.4261 15.0223 10.8552 14.3615 9.65269C14.0473 9.08935 13.5382 8.68851 12.9315 8.52601C12.3248 8.36351 11.6857 8.47185 11.1332 8.80769L8.59819 10.3785C7.42819 11.1044 7.01654 12.6752 7.67737 13.8886C7.9482 14.3761 8.38154 14.7552 8.90154 14.9502C9.32404 15.1019 9.54069 15.5677 9.37819 15.9902C9.25903 16.3261 8.94487 16.5319 8.60904 16.5319Z" fill="white"/>
<path d="M13.723 19.121C13.398 19.121 13.0621 19.0777 12.7371 18.991C11.6971 18.7202 10.8196 18.0377 10.2996 17.0844C9.21628 15.1344 9.88793 12.5885 11.7838 11.4077L12.0655 11.2019C12.4338 10.9419 12.943 11.0285 13.203 11.386C13.463 11.7544 13.3763 12.2635 13.0188 12.5235L12.683 12.7619C11.4696 13.5202 11.058 15.091 11.7188 16.2935C12.033 16.8569 12.5421 17.2577 13.1488 17.4202C13.7555 17.5827 14.3946 17.4744 14.9471 17.1385L17.4821 15.5677C18.6521 14.8419 19.0638 13.271 18.403 12.0577C18.1321 11.5702 17.6988 11.191 17.1788 10.996C16.7563 10.8444 16.5396 10.3785 16.7021 9.95604C16.8538 9.53354 17.3196 9.31687 17.7421 9.47937C18.6196 9.80437 19.3563 10.4435 19.8221 11.2777C20.9055 13.2277 20.2338 15.7735 18.338 16.9544L15.803 18.5252C15.1638 18.9152 14.4488 19.121 13.723 19.121Z" fill="white"/>
<path d="M13.0076 24.6459C6.58348 24.6459 1.36182 19.4242 1.36182 13.0001C1.36182 6.57591 6.58348 1.35425 13.0076 1.35425C19.4318 1.35425 24.6535 6.57591 24.6535 13.0001C24.6535 19.4242 19.4318 24.6459 13.0076 24.6459ZM13.0076 2.97925C7.48265 2.97925 2.98682 7.47508 2.98682 13.0001C2.98682 18.5251 7.48265 23.0209 13.0076 23.0209C18.5326 23.0209 23.0285 18.5251 23.0285 13.0001C23.0285 7.47508 18.5326 2.97925 13.0076 2.97925Z" fill="white"/>
</svg>
