<svg width="23" height="23" viewBox="0 0 23 23" fill="none" xmlns="http://www.w3.org/2000/svg">
<path d="M10.8163 21.7413C4.9271 21.7413 0.132324 16.9465 0.132324 11.0573C0.132324 5.16801 4.9271 0.37323 10.8163 0.37323C16.7056 0.37323 21.5004 5.16801 21.5004 11.0573C21.5004 16.9465 16.7056 21.7413 10.8163 21.7413ZM10.8163 1.93675C5.78183 1.93675 1.69584 6.03315 1.69584 11.0573C1.69584 16.0813 5.78183 20.1778 10.8163 20.1778C15.8509 20.1778 19.9369 16.0813 19.9369 11.0573C19.9369 6.03315 15.8509 1.93675 10.8163 1.93675Z" fill="#272727"/>
<path d="M21.7613 22.7835C21.5633 22.7835 21.3652 22.7105 21.2089 22.5542L19.1242 20.4695C18.8219 20.1672 18.8219 19.6669 19.1242 19.3646C19.4265 19.0623 19.9268 19.0623 20.2291 19.3646L22.3137 21.4493C22.616 21.7516 22.616 22.2519 22.3137 22.5542C22.1574 22.7105 21.9593 22.7835 21.7613 22.7835Z" fill="#272727"/>
</svg>
