<svg width="14" height="10" viewBox="0 0 14 10" fill="none" xmlns="http://www.w3.org/2000/svg">
<path d="M8.63094 9.93235C8.50569 9.93235 8.38044 9.88621 8.28156 9.78733C8.09039 9.59616 8.09039 9.27974 8.28156 9.08856L11.9336 5.43654L8.28156 1.78452C8.09039 1.59335 8.09039 1.27693 8.28156 1.08576C8.47273 0.89459 8.78915 0.89459 8.98032 1.08576L12.9817 5.08716C13.1729 5.27833 13.1729 5.59475 12.9817 5.78592L8.98032 9.78733C8.88144 9.88621 8.75619 9.93235 8.63094 9.93235Z" fill="#0A0A0A"/>
<path d="M12.5209 5.93095H1.42641C1.15614 5.93095 0.932007 5.70682 0.932007 5.43655C0.932007 5.16627 1.15614 4.94214 1.42641 4.94214H12.5209C12.7912 4.94214 13.0153 5.16627 13.0153 5.43655C13.0153 5.70682 12.7912 5.93095 12.5209 5.93095Z" fill="#0A0A0A"/>
</svg>
