<svg xmlns="http://www.w3.org/2000/svg" width="32" height="32" fill="none" viewBox="0 0 32 32" id="terms-conditions">
  <path fill="#000" fill-rule="evenodd" d="M9.5 15C10.3284 15 11 14.3284 11 13.5 11 12.6716 10.3284 12 9.5 12 8.67157 12 8 12.6716 8 13.5 8 14.3284 8.67157 15 9.5 15zM9.5 14C9.77614 14 10 13.7761 10 13.5 10 13.2239 9.77614 13 9.5 13 9.22386 13 9 13.2239 9 13.5 9 13.7761 9.22386 14 9.5 14zM11 19.5C11 20.3284 10.3284 21 9.5 21 8.67157 21 8 20.3284 8 19.5 8 18.6716 8.67157 18 9.5 18 10.3284 18 11 18.6716 11 19.5zM10 19.5C10 19.7761 9.77614 20 9.5 20 9.22386 20 9 19.7761 9 19.5 9 19.2239 9.22386 19 9.5 19 9.77614 19 10 19.2239 10 19.5zM9.5 27C10.3284 27 11 26.3284 11 25.5 11 24.6716 10.3284 24 9.5 24 8.67157 24 8 24.6716 8 25.5 8 26.3284 8.67157 27 9.5 27zM9.5 26C9.77614 26 10 25.7761 10 25.5 10 25.2239 9.77614 25 9.5 25 9.22386 25 9 25.2239 9 25.5 9 25.7761 9.22386 26 9.5 26z" clip-rule="evenodd"></path>
  <path fill="#000" d="M14 13C13.7239 13 13.5 13.2239 13.5 13.5 13.5 13.7761 13.7239 14 14 14H26C26.2761 14 26.5 13.7761 26.5 13.5 26.5 13.2239 26.2761 13 26 13H14zM14 25C13.7239 25 13.5 25.2239 13.5 25.5 13.5 25.7761 13.7239 26 14 26H26C26.2761 26 26.5 25.7761 26.5 25.5 26.5 25.2239 26.2761 25 26 25H14zM13.5 19.5C13.5 19.2239 13.7239 19 14 19H26C26.2761 19 26.5 19.2239 26.5 19.5 26.5 19.7761 26.2761 20 26 20H14C13.7239 20 13.5 19.7761 13.5 19.5z"></path>
  <path fill="#000" fill-rule="evenodd" d="M7.5 3L6 2V5H5C3.34315 5 2 6.34315 2 8V27C2 28.6569 3.34315 30 5 30H27C28.6569 30 30 28.6569 30 27V8C30 6.34315 28.6569 5 27 5H26V2L24.5 3L23.5 2L22.5 3L21.5 2L20.5 3L19 2V5H13V2L11.5 3L10.5 2L9.5 3L8.5 2L7.5 3ZM12 3.86852L11.3726 4.2868L10.5 3.41421L9.5 4.41421L8.5 3.41421L7.62742 4.2868L7 3.86852V8.13148L7.62742 7.7132L8.5 8.58579L9.5 7.58579L10.5 8.58579L11.3726 7.7132L12 8.13148V3.86852ZM6 6V10L7.5 9L8.5 10L9.5 9L10.5 10L11.5 9L13 10V6H19V10L20.5 9L21.5 10L22.5 9L23.5 10L24.5 9L26 10V6H27C28.1046 6 29 6.89543 29 8V27C29 28.1046 28.1046 29 27 29H5C3.89543 29 3 28.1046 3 27V8C3 6.89543 3.89543 6 5 6H6ZM25 3.86852L24.3726 4.2868L23.5 3.41421L22.5 4.41421L21.5 3.41421L20.6274 4.2868L20 3.86852V8.13148L20.6274 7.7132L21.5 8.58579L22.5 7.58579L23.5 8.58579L24.3726 7.7132L25 8.13148V3.86852Z" clip-rule="evenodd"></path>
</svg>
