<svg width="9" height="18" viewBox="0 0 9 18" fill="none" xmlns="http://www.w3.org/2000/svg">
<path d="M0.909609 17.67C0.719609 17.67 0.529609 17.6 0.379609 17.45C0.0896094 17.16 0.0896094 16.68 0.379609 16.39L6.8996 9.87C7.3796 9.39 7.3796 8.61 6.8996 8.13L0.379609 1.61002C0.0896094 1.32002 0.0896094 0.84002 0.379609 0.55002C0.669609 0.26002 1.14961 0.26002 1.43961 0.55002L7.9596 7.07C8.4696 7.58 8.7596 8.27 8.7596 9C8.7596 9.73 8.4796 10.42 7.9596 10.93L1.43961 17.45C1.28961 17.59 1.09961 17.67 0.909609 17.67Z" fill="#272727"/>
</svg>
