<svg width="19" height="19" viewBox="0 0 19 19" fill="none" xmlns="http://www.w3.org/2000/svg">
<g id="Group 63778">
<path id="Vector" d="M14.0367 18.6609H5.10383C2.71719 18.6609 1.19997 17.2375 1.06359 14.8594L0.62036 7.8273C0.552171 6.76184 0.91869 5.73899 1.65173 4.96333C2.37624 4.18768 3.39909 3.74444 4.45603 3.74444C4.72879 3.74444 4.99302 3.58249 5.12088 3.32678L5.73458 2.10789C6.23748 1.11062 7.49898 0.334961 8.59856 0.334961H10.5505C11.65 0.334961 12.903 1.11062 13.4059 2.09937L14.0196 3.34383C14.1475 3.58249 14.4032 3.74444 14.6845 3.74444C15.7414 3.74444 16.7643 4.18768 17.4888 4.96333C18.2218 5.74751 18.5883 6.76184 18.5202 7.8273L18.0769 14.8679C17.9235 17.2801 16.4489 18.6609 14.0367 18.6609ZM8.59856 1.61352C7.9678 1.61352 7.16657 2.10789 6.87676 2.67898L6.26305 3.90639C5.90506 4.59681 5.21464 5.023 4.45603 5.023C3.74004 5.023 3.07518 5.31281 2.58081 5.83275C2.09496 6.3527 1.84777 7.03459 1.89892 7.74206L2.34215 14.7826C2.44442 16.5044 3.37352 17.3824 5.10383 17.3824H14.0367C15.7585 17.3824 16.6876 16.5044 16.7984 14.7826L17.2416 7.74206C17.2842 7.03459 17.0455 6.3527 16.5597 5.83275C16.0653 5.31281 15.4005 5.023 14.6845 5.023C13.9259 5.023 13.2355 4.59681 12.8775 3.92344L12.2552 2.67898C11.9739 2.11642 11.1727 1.62204 10.542 1.62204H8.59856V1.61352Z" fill="#292D32"/>
<path id="Vector_2" d="M10.8492 6.7279H8.29211C7.94264 6.7279 7.65283 6.43809 7.65283 6.08862C7.65283 5.73915 7.94264 5.44934 8.29211 5.44934H10.8492C11.1987 5.44934 11.4885 5.73915 11.4885 6.08862C11.4885 6.43809 11.1987 6.7279 10.8492 6.7279Z" fill="#292D32"/>
<path id="Vector_3" d="M9.57062 15.2516C7.68688 15.2516 6.16113 13.7258 6.16113 11.8421C6.16113 9.95836 7.68688 8.43262 9.57062 8.43262C11.4544 8.43262 12.9801 9.95836 12.9801 11.8421C12.9801 13.7258 11.4544 15.2516 9.57062 15.2516ZM9.57062 9.71117C8.39434 9.71117 7.43969 10.6658 7.43969 11.8421C7.43969 13.0184 8.39434 13.973 9.57062 13.973C10.7469 13.973 11.7015 13.0184 11.7015 11.8421C11.7015 10.6658 10.7469 9.71117 9.57062 9.71117Z" fill="#292D32"/>
</g>
</svg>
