<svg width="28" height="27" viewBox="0 0 28 27" fill="none" xmlns="http://www.w3.org/2000/svg">
<path d="M20.8347 0.46582H7.56798C3.90637 0.46582 0.934631 3.4243 0.934631 7.07264V15.0061V16.3328C0.934631 19.9811 3.90637 22.9396 7.56798 22.9396H9.55799C9.91619 22.9396 10.3938 23.1784 10.6193 23.4703L12.6093 26.1104C13.4849 27.2778 14.9177 27.2778 15.7933 26.1104L17.7833 23.4703C18.0354 23.1386 18.4334 22.9396 18.8447 22.9396H20.8347C24.4963 22.9396 27.468 19.9811 27.468 16.3328V7.07264C27.468 3.4243 24.4963 0.46582 20.8347 0.46582ZM15.528 16.0542H7.56798C7.02405 16.0542 6.57298 15.6031 6.57298 15.0592C6.57298 14.5153 7.02405 14.0642 7.56798 14.0642H15.528C16.0719 14.0642 16.523 14.5153 16.523 15.0592C16.523 15.6031 16.0719 16.0542 15.528 16.0542ZM20.8347 9.42085H7.56798C7.02405 9.42085 6.57298 8.96978 6.57298 8.42584C6.57298 7.88191 7.02405 7.43084 7.56798 7.43084H20.8347C21.3786 7.43084 21.8297 7.88191 21.8297 8.42584C21.8297 8.96978 21.3786 9.42085 20.8347 9.42085Z" fill="#272727"/>
</svg>
