<svg width="23" height="26" viewBox="0 0 23 26" fill="none" xmlns="http://www.w3.org/2000/svg">
<g id="Group 63804">
<path id="Vector" d="M11.4597 25.9094C5.27397 25.9094 0.245117 20.8805 0.245117 14.6948C0.245117 8.50908 5.27397 3.48022 11.4597 3.48022C17.6454 3.48022 22.6743 8.50908 22.6743 14.6948C22.6743 20.8805 17.6454 25.9094 11.4597 25.9094ZM11.4597 5.25095C6.25377 5.25095 2.01584 9.48888 2.01584 14.6948C2.01584 19.9007 6.25377 24.1387 11.4597 24.1387C16.6656 24.1387 20.9036 19.9007 20.9036 14.6948C20.9036 9.48888 16.6656 5.25095 11.4597 5.25095Z" fill="white"/>
<path id="Vector_2" d="M11.4598 15.2851C10.9758 15.2851 10.5745 14.8837 10.5745 14.3997V8.4973C10.5745 8.0133 10.9758 7.61194 11.4598 7.61194C11.9438 7.61194 12.3452 8.0133 12.3452 8.4973V14.3997C12.3452 14.8837 11.9438 15.2851 11.4598 15.2851Z" fill="white"/>
<path id="Vector_3" d="M15.0012 2.29978H7.91832C7.43432 2.29978 7.03296 1.89841 7.03296 1.41441C7.03296 0.930417 7.43432 0.529053 7.91832 0.529053H15.0012C15.4852 0.529053 15.8866 0.930417 15.8866 1.41441C15.8866 1.89841 15.4852 2.29978 15.0012 2.29978Z" fill="white"/>
</g>
</svg>
