<svg width="24" height="24" viewBox="0 0 24 24" fill="none" xmlns="http://www.w3.org/2000/svg">
<path d="M11.1078 22.75H6.90781C2.99781 22.75 1.25781 21.01 1.25781 17.1V12.9C1.25781 8.99 2.99781 7.25 6.90781 7.25H11.1078C15.0178 7.25 16.7578 8.99 16.7578 12.9V17.1C16.7578 21.01 15.0178 22.75 11.1078 22.75ZM6.90781 8.75C3.80781 8.75 2.75781 9.8 2.75781 12.9V17.1C2.75781 20.2 3.80781 21.25 6.90781 21.25H11.1078C14.2078 21.25 15.2578 20.2 15.2578 17.1V12.9C15.2578 9.8 14.2078 8.75 11.1078 8.75H6.90781Z" fill="#959595"/>
<path d="M17.1078 16.75H16.0078C15.5978 16.75 15.2578 16.41 15.2578 16V12.9C15.2578 9.8 14.2078 8.75 11.1078 8.75H8.00781C7.59781 8.75 7.25781 8.41 7.25781 8V6.9C7.25781 2.99 8.99781 1.25 12.9078 1.25H17.1078C21.0178 1.25 22.7578 2.99 22.7578 6.9V11.1C22.7578 15.01 21.0178 16.75 17.1078 16.75ZM16.7578 15.25H17.1078C20.2078 15.25 21.2578 14.2 21.2578 11.1V6.9C21.2578 3.8 20.2078 2.75 17.1078 2.75H12.9078C9.80781 2.75 8.75781 3.8 8.75781 6.9V7.25H11.1078C15.0178 7.25 16.7578 8.99 16.7578 12.9V15.25Z" fill="#959595"/>
</svg>
