<svg width="23" height="23" viewBox="0 0 23 23" fill="none" xmlns="http://www.w3.org/2000/svg">
<g clip-path="url(#clip0_2550_1027)">
<mask id="mask0_2550_1027" style="mask-type:luminance" maskUnits="userSpaceOnUse" x="0" y="0" width="23" height="23">
<path d="M0 0H23V23H0V0Z" fill="white"/>
</mask>
<g mask="url(#mask0_2550_1027)">
<mask id="mask1_2550_1027" style="mask-type:luminance" maskUnits="userSpaceOnUse" x="0" y="0" width="23" height="23">
<path fill-rule="evenodd" clip-rule="evenodd" d="M5.27045 9.40689C5.25002 9.39374 5.23129 9.37879 5.21448 9.36193L5.21278 9.36028L5.20369 9.3506L5.20284 9.3497L5.19648 9.34239L3.89518 7.80617C3.77962 7.66967 3.8139 7.47824 3.97192 7.37846C4.12982 7.2789 4.35152 7.30839 4.4673 7.44484L5.1281 8.22499V5.78791C5.1281 5.61895 5.28676 5.48202 5.48256 5.48202C5.67823 5.48202 5.83697 5.61895 5.83697 5.78791V8.22485L6.49756 7.44484C6.61311 7.30853 6.83507 7.2789 6.99284 7.37846C7.15086 7.47838 7.18524 7.66981 7.06959 7.80617L5.77295 9.33709L5.76838 9.34239L5.76533 9.34614L5.76202 9.3497L5.7613 9.3506L5.75875 9.35324L5.75327 9.35908L5.75208 9.36028L5.7505 9.36193L5.74521 9.36702L5.7448 9.36745L5.73908 9.37281L5.73813 9.3737C5.7285 9.38232 5.71843 9.39026 5.70797 9.39784L5.70763 9.39814L5.7035 9.40097L5.7013 9.40243L5.69951 9.40368L5.69535 9.4064L5.69463 9.40689L5.68764 9.41121L5.68701 9.41162L5.68276 9.4142L5.68065 9.41537C5.6742 9.41915 5.66774 9.42268 5.66098 9.42611L5.65896 9.42722L5.65654 9.42825L5.65197 9.43048L5.65144 9.43076L5.64744 9.43258L5.64382 9.43423L5.64288 9.43459L5.63831 9.4366L5.63611 9.4375L5.63368 9.43847L5.6289 9.44043L5.62836 9.4407L5.62424 9.44217L5.62043 9.44364L5.61949 9.44399L5.61473 9.44565L5.60995 9.44725L5.6051 9.44886L5.60435 9.44913L5.60022 9.45032L5.59619 9.45158L5.59534 9.45177L5.59037 9.45323L5.58785 9.45394L5.58552 9.45448L5.58055 9.45582L5.57948 9.45609L5.57557 9.45698L5.5711 9.45796L5.57048 9.45818L5.5655 9.45916L5.56254 9.45978L5.56043 9.46019L5.55537 9.46117C5.54857 9.46234 5.5417 9.46345 5.53481 9.4643L5.52965 9.46492L5.52763 9.46519L5.52455 9.46555L5.51926 9.46603L5.51872 9.46612L5.51407 9.46644L5.50975 9.46674L5.5089 9.4668L5.50361 9.46707L5.50075 9.46723L5.49833 9.46737L5.49301 9.4675L5.49165 9.46756L5.48772 9.46764H5.47727L5.47333 9.46756L5.47195 9.4675L5.46666 9.46737L5.46423 9.46723L5.46137 9.46707L5.45608 9.4668L5.45523 9.46674L5.45089 9.46644L5.44623 9.46612L5.44572 9.46603L5.44041 9.46549L5.43534 9.46492L5.43014 9.4643C5.42319 9.46345 5.41639 9.46234 5.40962 9.46117L5.40455 9.46019L5.40244 9.45978L5.39945 9.45916C5.37408 9.45394 5.34962 9.44627 5.32664 9.43654L5.32211 9.43459L5.32116 9.43423L5.31745 9.43249L5.31351 9.43076L5.31288 9.43048L5.30845 9.42825L5.30612 9.42722L5.30391 9.42597L5.29957 9.42374L5.29872 9.42331L5.2951 9.42143L5.29151 9.41942L5.29079 9.41907L5.28644 9.4167L5.28433 9.41537L5.2821 9.41412L5.27785 9.41162L5.27735 9.41121L5.27373 9.40898L5.27045 9.40689ZM8.83186 6.16343C8.90439 6.16343 8.97754 6.14402 9.04088 6.10428L10.8201 4.98098C10.8655 4.95236 10.9015 4.91515 10.9264 4.87313L10.9269 4.87251L10.9291 4.86846L10.9303 4.86644L10.9313 4.86449L10.9334 4.86047L10.9339 4.85976L10.934 4.85954L10.9372 4.85294L10.9376 4.85231L10.9396 4.84821L10.9406 4.84598L10.9415 4.84397L10.9433 4.83986L10.9437 4.83902L10.945 4.83568L10.9466 4.83201L10.9467 4.83144L10.9484 4.8272L10.9492 4.82483L10.9499 4.82296L10.9513 4.81872L10.9517 4.8176L10.9528 4.81439L10.954 4.81035L10.9541 4.81002L10.9554 4.8057L10.9561 4.80298L10.9565 4.80132L10.9575 4.79692L10.958 4.79553L10.9587 4.79254L10.9595 4.78808L10.9597 4.78795L10.9605 4.78371L10.9611 4.7805L10.9612 4.7792L10.9621 4.77474L10.9623 4.77278L10.9626 4.7702L10.9633 4.76577L10.9634 4.76512L10.9638 4.76131L10.9641 4.75734L10.9642 4.75672L10.9646 4.74962L10.9648 4.74767L10.965 4.74307L10.9651 4.74174V4.73856L10.9652 4.73397V4.73381L10.9651 4.72943V4.72595L10.965 4.72484L10.9648 4.72024L10.9646 4.7181L10.9645 4.71579L10.9642 4.71119L10.9641 4.71029L10.9638 4.70676L10.9634 4.70249L10.9633 4.70217L10.9626 4.69771C10.9609 4.68559 10.9587 4.67385 10.9554 4.66221L10.9541 4.65797L10.954 4.65727L10.9517 4.65012L10.9514 4.64928L10.9484 4.6408L10.9467 4.63647C10.9419 4.62367 10.9359 4.61136 10.9292 4.5994L10.9269 4.59543L10.9264 4.59451L10.9246 4.59138L10.9224 4.5879L10.9221 4.58749L10.9196 4.58366L10.9182 4.58157L10.917 4.57983L10.9144 4.576L10.9139 4.57518L10.9118 4.57211L10.9094 4.5689L10.909 4.56841L10.9061 4.56466L10.9047 4.56271L10.9033 4.56091L10.9003 4.55722L10.8998 4.55667L10.8973 4.55368L10.8948 4.55075L10.8942 4.54999L10.8911 4.54659L10.8896 4.5449L10.8879 4.54295L10.8845 4.53955L10.8842 4.53914L10.8813 4.53615L10.8788 4.53357L10.8779 4.53267L10.8744 4.52925L10.8731 4.52808L10.8709 4.52599L10.8674 4.5227H10.8673L10.8637 4.51952L10.8614 4.51742L10.86 4.51631L10.8563 4.51318L10.8553 4.51234L10.8524 4.51011L10.8491 4.50734L10.8487 4.50699L10.8447 4.50405L10.8408 4.50106L10.8367 4.49815L10.8362 4.49766L10.8327 4.4953L10.8286 4.49245L10.8243 4.48959L10.8201 4.48696L10.816 4.48429L10.8144 4.48331L9.04088 3.36335C8.88311 3.26358 8.66118 3.29328 8.54562 3.42973C8.43007 3.56617 8.46431 3.7576 8.62234 3.85738L9.52578 4.42787H6.70352C6.50772 4.42787 6.34907 4.5648 6.34907 4.73381C6.34907 4.90284 6.50772 5.03983 6.70352 5.03983H9.52603L8.62234 5.61039C8.46431 5.71017 8.43007 5.9016 8.54562 6.03805C8.615 6.1198 8.72257 6.16343 8.83186 6.16343ZM2.13344 6.16343C2.24245 6.16343 2.35026 6.11975 2.4198 6.03813C2.53549 5.90182 2.50108 5.71004 2.34309 5.61047L1.4394 5.03983H4.26168C4.45748 5.03983 4.6161 4.90284 4.6161 4.73381C4.6161 4.5648 4.45748 4.42787 4.26168 4.42787H1.43984L2.34309 3.85744C2.50108 3.75766 2.53549 3.56625 2.4198 3.42981C2.30434 3.29356 2.08263 3.26349 1.92464 3.36349L0.157488 4.47937C0.0625482 4.53433 0 4.62769 0 4.73381C0 4.78697 0.0157708 4.83693 0.0433777 4.88042L0.0459275 4.88433L0.0469977 4.88612L0.0483513 4.88822L0.0509955 4.89205L0.0513103 4.89254L0.0537657 4.8958L0.0558747 4.89873L0.0565043 4.89963L0.0593689 4.90333L0.0605336 4.90493L0.0622334 4.90708L0.0651924 4.91069L0.0654128 4.91097L0.0681514 4.91425L0.0704809 4.91689C0.0913198 4.94111 0.116534 4.96274 0.1454 4.98104L1.92464 6.10437C1.9876 6.14424 2.06082 6.16343 2.13344 6.16343ZM19.8693 23H15.3432C15.1432 23 14.9813 22.8602 14.9813 22.6875V20.8346H20.2313V22.6875C20.2313 22.8602 20.0691 23 19.8693 23ZM17.6058 17.2037C20.5801 17.2037 22.9997 15.1146 22.9997 12.5465V7.41806L23 7.41054V6.56137C23 5.9917 22.4632 5.5285 21.8035 5.5285C21.1439 5.5285 20.6069 5.9917 20.6069 6.56137V7.4179C20.6069 7.50259 20.5378 7.57307 20.445 7.58935L20.44 7.5902L20.4351 7.5909L20.43 7.59158L20.425 7.59202L20.4199 7.59251L20.4146 7.59278L20.4095 7.59283L20.4042 7.59291L20.3989 7.59283L20.3939 7.59278L20.3885 7.59251L20.3835 7.59202L20.3784 7.59158L20.3733 7.5909L20.3682 7.5902L20.3633 7.58935C20.2709 7.57307 20.2017 7.50268 20.2017 7.4179V5.58376C20.2017 5.01403 19.6649 4.55069 19.0051 4.55069C18.3451 4.55069 17.8088 5.01403 17.8088 5.58376V7.42249L17.8086 7.42695L17.8084 7.43149L17.8078 7.43587L17.8073 7.44032L17.8065 7.44465L17.8056 7.44902L17.8048 7.45318L17.8038 7.4575L17.8025 7.46182L17.8012 7.46593L17.7997 7.47003L17.7982 7.47414L17.7965 7.47816L17.7948 7.48221L17.793 7.4861L17.791 7.49006L17.7845 7.50148L17.7819 7.5051L17.7794 7.50879L17.7769 7.51232L17.7741 7.51589L17.7714 7.51928L17.7686 7.52276L17.7656 7.52605L17.7625 7.52931L17.7593 7.53252L17.7561 7.53573L17.7529 7.53877L17.7495 7.54176L17.7352 7.55296L17.7313 7.55576L17.7195 7.56307L17.7154 7.56543L17.6985 7.57383L17.6941 7.57565L17.6897 7.57748L17.685 7.57922L17.6806 7.58079L17.6759 7.58234L17.6712 7.58381L17.6664 7.58506L17.6617 7.58636L17.6569 7.58748L17.6519 7.58846L17.6471 7.58935L17.642 7.5902L17.6372 7.5909L17.6319 7.59158L17.6268 7.59202L17.6217 7.59251L17.6166 7.59278L17.6113 7.59283L17.6062 7.59291C17.4941 7.59291 17.4036 7.51469 17.4036 7.4179V4.69401C17.4036 4.12407 16.8667 3.66087 16.2067 3.66087C15.5538 3.66087 15.0219 4.11475 15.0109 4.67627V7.4179C15.0109 7.45715 14.9956 7.49362 14.9705 7.52276L14.9675 7.52605L14.9643 7.52931L14.9611 7.53252L14.958 7.53573L14.9546 7.53877L14.9512 7.54176L14.9478 7.5447L14.9442 7.54755L14.9407 7.55027L14.937 7.55296L14.9332 7.55576L14.9294 7.55818L14.9253 7.56071L14.9213 7.56307L14.9171 7.56543L14.9131 7.56766L14.9089 7.56981L14.9046 7.57182L14.9004 7.57383L14.8959 7.57565L14.8915 7.57748L14.8868 7.57922L14.8824 7.58079L14.8777 7.58234L14.8729 7.58381L14.8682 7.58506L14.8587 7.58748L14.8538 7.58846L14.8488 7.58935L14.8439 7.5902L14.8388 7.5909L14.8337 7.59158L14.8286 7.59202L14.8236 7.59251L14.8185 7.59278L14.8132 7.59283L14.8079 7.59291C14.6959 7.59291 14.6053 7.51469 14.6053 7.4179V1.03698C14.6053 0.467037 14.0688 0.0038324 13.4088 0.0038324C12.7489 0.0038324 12.2125 0.467227 12.2125 1.03698V7.4179L12.2123 7.42695V11.4412C12.2123 11.512 12.1629 11.5757 12.0872 11.6029C12.0114 11.63 11.9244 11.615 11.8665 11.5649L9.89131 9.85979C9.66583 9.66497 9.36429 9.5585 9.04532 9.5585C8.72637 9.5585 8.42481 9.66497 8.19933 9.85979C7.97378 10.0546 7.8507 10.3149 7.8507 10.5903C7.8507 10.8656 7.97378 11.1258 8.19933 11.3207C8.78754 11.8286 9.33996 12.3849 9.88785 12.9256C11.1986 14.2185 13.5853 16.6651 15.4589 17.1253C15.9485 17.2454 16.6171 17.2209 17.1323 17.2103C17.29 17.207 17.448 17.2037 17.6058 17.2037ZM21.0805 20.4677H14.1319C13.932 20.4677 13.7699 20.3277 13.7699 20.1552V16.7764C14.3039 17.103 14.8358 17.3538 15.3428 17.4782C15.8992 17.6149 16.5661 17.5889 17.1425 17.5771C17.2971 17.574 17.4513 17.5706 17.6058 17.5706C19.0743 17.5706 20.4173 17.0984 21.4422 16.321L21.4424 20.1548C21.4424 20.2376 21.4043 20.3174 21.3364 20.376C21.2686 20.4347 21.1763 20.4677 21.0805 20.4677ZM5.48256 3.98597C5.28676 3.98597 5.1281 3.84896 5.1281 3.67995V1.24287L4.4673 2.02294C4.35197 2.15952 4.13004 2.18936 3.97214 2.08931C3.81403 1.98953 3.77962 1.79797 3.8953 1.66166L5.19194 0.130872C5.25597 0.0516967 5.36221 0 5.48256 0C5.59569 0 5.69642 0.0457714 5.7613 0.117038L5.76224 0.118152L5.76649 0.122882L5.7687 0.125382L5.77156 0.128861L7.0699 1.66166C7.18546 1.79805 7.15105 1.98953 6.99306 2.08931C6.92988 2.12891 6.85644 2.14832 6.78382 2.14832C6.67462 2.14832 6.567 2.10483 6.49768 2.02294L5.83697 1.24292V3.67995C5.83697 3.84874 5.67823 3.98597 5.48256 3.98597Z" fill="white"/>
</mask>
<g mask="url(#mask1_2550_1027)">
<path d="M0 0V23H23V0H0Z" fill="#222222"/>
</g>
</g>
</g>
<defs>
<clipPath id="clip0_2550_1027">
<rect width="23" height="23" fill="white"/>
</clipPath>
</defs>
</svg>
