<svg width="10" height="10" viewBox="0 0 10 10" fill="none" xmlns="http://www.w3.org/2000/svg">
<path d="M4.99697 0.400391L3.7251 1.66563C3.6457 1.74503 3.6457 1.87412 3.7251 1.95352C3.8045 2.03292 3.9332 2.03292 4.0126 1.95352L4.8001 1.16914V3.00039H0.600098V3.40039H9.4001V3.00039H5.2001V1.16914L5.9876 1.95352C6.067 2.03292 6.19609 2.03292 6.27549 1.95352C6.35489 1.87412 6.3545 1.74503 6.2751 1.66563L5.00322 0.400391L5.0001 0.403516L4.99697 0.400391ZM0.600098 4.80039V5.20039H9.4001V4.80039H0.600098ZM0.600098 6.60313V7.00313H4.79971L4.8001 7.00352V8.83477L4.0126 8.05C3.9332 7.9706 3.8045 7.9706 3.7251 8.05C3.6457 8.1294 3.6457 8.25849 3.7251 8.33789L4.99697 9.60313L5.0001 9.6L5.00322 9.60313L6.2751 8.33789C6.3545 8.25849 6.35489 8.12979 6.27549 8.05039C6.19609 7.97099 6.067 7.97099 5.9876 8.05039L5.2001 8.83477V7.00352L5.20049 7.00313H9.4001V6.60313H0.600098Z" fill="black"/>
</svg>
