<svg width="19" height="18" viewBox="0 0 19 18" fill="none" xmlns="http://www.w3.org/2000/svg">
<path d="M4.45744 10.8186L3.85058 13.0841L1.63255 13.131C0.969679 11.9015 0.593689 10.4948 0.593689 8.99999C0.593689 7.5545 0.94523 6.19138 1.56836 4.99112H1.56884L3.54351 5.35315L4.40854 7.31598C4.22749 7.8438 4.12881 8.4104 4.12881 8.99999C4.12888 9.63988 4.24479 10.253 4.45744 10.8186Z" fill="#FBBC05"/>
<path d="M17.8754 7.37152C17.9755 7.89883 18.0277 8.44341 18.0277 8.99997C18.0277 9.62405 17.9621 10.2328 17.8371 10.82C17.4128 12.8182 16.304 14.5631 14.768 15.7978L14.7675 15.7973L12.2803 15.6704L11.9283 13.473C12.9475 12.8752 13.744 11.9398 14.1636 10.82H9.50235V7.37152H17.8754Z" fill="#4285F4"/>
<path d="M14.7675 15.7973L14.7679 15.7978C13.2741 16.9986 11.3764 17.717 9.31071 17.717C5.99105 17.717 3.10487 15.8615 1.63255 13.131L4.45744 10.8186C5.19358 12.7833 7.08882 14.1818 9.31071 14.1818C10.2657 14.1818 11.1604 13.9237 11.9282 13.473L14.7675 15.7973Z" fill="#34A853"/>
<path d="M14.8748 2.28978L12.0508 4.6017C11.2562 4.10503 10.317 3.81812 9.31071 3.81812C7.03853 3.81812 5.10784 5.28084 4.40858 7.31596L1.56884 4.9911H1.56836C3.01913 2.194 5.94172 0.282959 9.31071 0.282959C11.4258 0.282959 13.3651 1.03637 14.8748 2.28978Z" fill="#EB4335"/>
</svg>
