<svg width="17" height="9" viewBox="0 0 17 9" fill="none" xmlns="http://www.w3.org/2000/svg">
<g id="Group 63783">
<path id="Vector" d="M4.65582 8.93117C4.42912 8.93117 4.21375 8.84049 4.05506 8.6818L0.847127 5.47392C0.518405 5.1452 0.518405 4.60111 0.847127 4.27239C1.17585 3.94367 1.71994 3.94367 2.04866 4.27239L4.65582 6.87949L10.4821 1.05318C10.8109 0.72446 11.3549 0.72446 11.6837 1.05318C12.0124 1.3819 12.0124 1.92599 11.6837 2.25472L5.25659 8.6818C5.0979 8.84049 4.88253 8.93117 4.65582 8.93117Z" fill="#272727"/>
<path id="Vector_2" d="M9.07008 8.93117C8.84337 8.93117 8.628 8.84049 8.46931 8.6818L6.83941 7.04201C6.51069 6.71329 6.88112 6.4962 7.20984 6.16748C7.53856 5.83876 7.71607 5.55466 8.04479 5.88338L9.07008 6.87949L14.8964 1.05318C15.2251 0.72446 15.7692 0.72446 16.0979 1.05318C16.4266 1.3819 16.4266 1.92599 16.0979 2.25472L9.67084 8.6818C9.51215 8.84049 9.29678 8.93117 9.07008 8.93117Z" fill="#272727"/>
</g>
</svg>
