<svg width="17" height="19" viewBox="0 0 17 19" fill="none" xmlns="http://www.w3.org/2000/svg">
<g id="Group 63779">
<path id="Vector" d="M8.62503 16.1037C5.45424 16.1037 2.87158 13.521 2.87158 10.3502V6.08841C2.87158 2.91762 5.45424 0.334961 8.62503 0.334961C11.7958 0.334961 14.3785 2.91762 14.3785 6.08841V10.3502C14.3785 13.521 11.7958 16.1037 8.62503 16.1037ZM8.62503 1.61351C6.1617 1.61351 4.15013 3.61656 4.15013 6.08841V10.3502C4.15013 12.8221 6.1617 14.8251 8.62503 14.8251C11.0884 14.8251 13.0999 12.8221 13.0999 10.3502V6.08841C13.0999 3.61656 11.0884 1.61351 8.62503 1.61351Z" fill="#292D32"/>
<path id="Vector_2" d="M8.62499 18.6609C4.03928 18.6609 0.314453 14.9361 0.314453 10.3503V8.64562C0.314453 8.29615 0.604257 8.00635 0.953725 8.00635C1.30319 8.00635 1.593 8.29615 1.593 8.64562V10.3503C1.593 14.2286 4.74674 17.3823 8.62499 17.3823C12.5032 17.3823 15.657 14.2286 15.657 10.3503V8.64562C15.657 8.29615 15.9468 8.00635 16.2963 8.00635C16.6457 8.00635 16.9355 8.29615 16.9355 8.64562V10.3503C16.9355 14.9361 13.2107 18.6609 8.62499 18.6609Z" fill="#292D32"/>
<path id="Vector_3" d="M10.8496 6.28474C10.7814 6.28474 10.7047 6.27621 10.628 6.25064C9.25566 5.75627 7.74697 5.75627 6.37465 6.25064C6.05075 6.36997 5.68424 6.1995 5.56491 5.86708C5.44558 5.53466 5.61605 5.16814 5.94847 5.04881C7.60207 4.45215 9.4176 4.45215 11.0712 5.04881C11.4036 5.16814 11.5741 5.53466 11.4548 5.86708C11.361 6.13131 11.1138 6.28474 10.8496 6.28474Z" fill="#292D32"/>
<path id="Vector_4" d="M10.0737 8.84163C10.0226 8.84163 9.9629 8.8331 9.90324 8.81606C8.99121 8.56887 8.02804 8.56887 7.11601 8.81606C6.76656 8.90982 6.42561 8.70525 6.33186 8.3643C6.2381 8.02336 6.44266 7.67387 6.78361 7.58011C7.91723 7.27326 9.11054 7.27326 10.2442 7.58011C10.5851 7.67387 10.7897 8.02336 10.6959 8.3643C10.6107 8.66263 10.355 8.84163 10.0737 8.84163Z" fill="#292D32"/>
</g>
</svg>
