<svg width="176" height="172" viewBox="0 0 176 172" fill="none" xmlns="http://www.w3.org/2000/svg">
<g id="Layer 2">
<g id="Layer 1">
<path id="Vector" d="M169.48 56.6779L141.374 49.0893L146.718 29.2983L174.824 36.8869L169.48 56.6779Z" stroke="#272727" stroke-linecap="round" stroke-linejoin="round"/>
<path id="Vector_2" d="M158.791 70.1836C165.982 70.1836 171.811 64.3547 171.811 57.1643C171.811 49.9739 165.982 44.1449 158.791 44.1449C151.6 44.1449 145.771 49.9739 145.771 57.1643C145.771 64.3547 151.6 70.1836 158.791 70.1836Z" fill="#C1E3F7"/>
<path id="Vector_3" d="M87.9448 80.8588H97.6405V170.6H87.9448V80.8588Z" fill="#272727"/>
<path id="Vector_4" d="M120.12 87.4035H55.7778V61.4387C55.7778 58.3379 57.0097 55.364 59.2025 53.1713C61.3952 50.9786 64.3693 49.7468 67.4703 49.7468H108.431C111.531 49.7478 114.504 50.9801 116.696 53.1726C118.888 55.3652 120.12 58.3385 120.12 61.4387V87.4035Z" fill="#272727"/>
<path id="Vector_5" d="M79.1515 87.4035H55.7739V61.4387C55.7739 58.3385 57.0053 55.3652 59.1973 53.1726C61.3892 50.9801 64.3623 49.7478 67.4627 49.7468C70.5631 49.7478 73.5362 50.9801 75.7281 53.1726C77.9201 55.3652 79.1515 58.3385 79.1515 61.4387V87.4035Z" fill="white" stroke="#272727" stroke-miterlimit="10"/>
<path id="Vector_6" d="M124.995 112.294L115.176 102.476C114.379 101.679 113.087 101.679 112.29 102.476L102.471 112.294C101.674 113.091 101.674 114.383 102.471 115.18L112.29 124.998C113.087 125.795 114.379 125.795 115.176 124.998L124.995 115.18C125.792 114.383 125.792 113.091 124.995 112.294Z" stroke="#272727" stroke-linecap="round" stroke-linejoin="round"/>
<path id="Vector_7" d="M52.3858 27.1505L33.8054 8.57101C31.9281 6.69378 28.8844 6.69379 27.0071 8.57101L8.15478 27.4224C6.27748 29.2997 6.27748 32.3432 8.15478 34.2204L26.7352 52.8C28.6125 54.6772 31.6562 54.6772 33.5335 52.8L52.3858 33.9485C54.2631 32.0713 54.2631 29.0277 52.3858 27.1505Z" fill="#C1E3F7"/>
<path id="Vector_8" d="M56.7626 27.2865L33.6692 4.19417C31.7919 2.31695 28.7482 2.31695 26.8709 4.19417L3.77744 27.2865C1.90013 29.1637 1.90013 32.2073 3.77744 34.0845L26.8709 57.1769C28.7482 59.0541 31.7919 59.0541 33.6692 57.1769L56.7626 34.0845C58.6399 32.2073 58.6399 29.1637 56.7626 27.2865Z" stroke="#272727" stroke-linecap="round" stroke-linejoin="round"/>
<path id="Vector_9" d="M27.0569 102.29C27.2538 103.253 27.4019 104.226 27.5007 105.204C27.6153 106.18 27.6819 107.156 27.741 108.133C27.8002 109.109 27.8261 110.089 27.8187 111.068C27.8255 112.056 27.7823 113.043 27.6892 114.027C27.4914 113.062 27.3421 112.088 27.2418 111.109C27.1309 110.133 27.0643 109.157 27.0052 108.181C26.946 107.204 26.9201 106.225 26.9275 105.245C26.9349 104.265 26.9608 103.274 27.0569 102.29Z" fill="#272727"/>
<path id="Vector_10" d="M33.2468 107.837C32.2839 108.035 31.3113 108.183 30.3329 108.28C29.3567 108.395 28.3805 108.462 27.4042 108.521C26.428 108.58 25.4481 108.606 24.4682 108.598C23.4806 108.605 22.4932 108.562 21.5099 108.469C22.4744 108.271 23.4481 108.122 24.4275 108.021C25.4037 107.911 26.38 107.844 27.3562 107.785C28.3324 107.726 29.3123 107.703 30.2922 107.707C31.2722 107.711 32.2521 107.737 33.2468 107.837ZM20.0197 114.585C20.1984 115.228 20.3306 115.883 20.4154 116.545C20.5041 117.199 20.567 117.853 20.604 118.512C20.641 119.17 20.6447 119.832 20.6299 120.49C20.6175 121.158 20.5557 121.824 20.445 122.483C20.2661 121.84 20.1351 121.185 20.053 120.523C19.872 119.215 19.8015 117.894 19.8422 116.574C19.8538 115.908 19.9131 115.243 20.0197 114.585Z" fill="#272727"/>
<path id="Vector_11" d="M24.1837 118.338C23.5406 118.516 22.8857 118.648 22.2238 118.734C21.5693 118.822 20.9111 118.885 20.2529 118.922C19.5947 118.959 18.9365 118.963 18.2746 118.944C17.6079 118.933 16.9429 118.873 16.2852 118.763C16.9279 118.584 17.5829 118.453 18.245 118.371C18.8995 118.279 19.5577 118.216 20.2159 118.183C20.8741 118.149 21.5323 118.138 22.1942 118.157C22.861 118.168 23.5259 118.229 24.1837 118.338ZM117.498 23.3569C116.755 23.5365 116.002 23.6674 115.242 23.7488C114.503 23.8376 113.73 23.9004 112.975 23.9374C112.221 23.9744 111.459 23.9781 110.698 23.9596C109.934 23.9456 109.172 23.8839 108.416 23.7747C109.159 23.5951 109.912 23.4642 110.672 23.3827C111.411 23.294 112.184 23.2311 112.938 23.1979C113.693 23.1646 114.455 23.1572 115.216 23.1757C115.98 23.1865 116.742 23.2471 117.498 23.3569Z" fill="#272727"/>
<path id="Vector_12" d="M113.164 28.1157C112.984 27.372 112.854 26.6173 112.772 25.8565C112.683 25.1022 112.622 24.3466 112.587 23.5898C112.55 22.8318 112.547 22.0738 112.565 21.3158C112.577 20.5509 112.639 19.7876 112.75 19.0306C112.929 19.7745 113.06 20.5291 113.142 21.2899C113.231 22.0442 113.292 22.7998 113.327 23.5565C113.361 24.3133 113.369 25.0713 113.349 25.8306C113.335 26.5954 113.273 27.3586 113.164 28.1157ZM120.767 27.0915C120.949 27.7327 121.084 28.3865 121.17 29.0475C121.262 29.702 121.333 30.3602 121.37 31.0184C121.407 31.6765 121.421 32.3347 121.407 32.9966C121.399 33.663 121.342 34.328 121.236 34.9859C121.054 34.3445 120.918 33.6908 120.83 33.0299C120.737 32.3754 120.671 31.7209 120.634 31.0627C120.597 30.4046 120.582 29.7427 120.597 29.0845C120.604 28.4169 120.661 27.7507 120.767 27.0915Z" fill="#272727"/>
<path id="Vector_13" d="M124.952 30.8038C124.311 30.9862 123.657 31.1209 122.996 31.2069C122.342 31.303 121.684 31.3695 121.025 31.4065C120.367 31.4435 119.709 31.4583 119.047 31.4435C118.381 31.4361 117.716 31.3793 117.058 31.2734C117.699 31.0906 118.353 30.9559 119.014 30.8704C119.668 30.7779 120.326 30.7077 120.981 30.6707C121.636 30.6337 122.301 30.6189 122.963 30.6337C123.629 30.6411 124.294 30.698 124.952 30.8038ZM155.74 104.879C154.996 105.058 154.242 105.189 153.481 105.27C152.727 105.359 151.971 105.421 151.214 105.455C150.457 105.49 149.699 105.498 148.94 105.481C148.175 105.467 147.412 105.405 146.655 105.296C147.399 105.117 148.153 104.986 148.914 104.904C149.669 104.816 150.424 104.754 151.181 104.72C151.939 104.683 152.697 104.679 153.455 104.697C154.22 104.708 154.983 104.769 155.74 104.879Z" fill="#272727"/>
<path id="Vector_14" d="M151.407 109.63C151.227 108.886 151.096 108.132 151.015 107.371C150.926 106.617 150.864 105.861 150.83 105.104C150.795 104.347 150.788 103.589 150.808 102.83C150.819 102.065 150.879 101.302 150.989 100.545C151.168 101.289 151.299 102.044 151.381 102.804C151.47 103.544 151.536 104.313 151.566 105.071C151.595 105.829 151.61 106.587 151.588 107.345C151.577 108.11 151.516 108.873 151.407 109.63ZM159.006 108.613C159.188 109.255 159.324 109.908 159.412 110.569C159.505 111.224 159.571 111.882 159.612 112.54C159.653 113.198 159.664 113.857 159.649 114.518C159.642 115.185 159.585 115.85 159.479 116.508C159.295 115.867 159.159 115.213 159.072 114.552C158.98 113.897 158.91 113.239 158.873 112.581C158.836 111.923 158.824 111.264 158.839 110.603C158.847 109.936 158.903 109.272 159.006 108.613Z" fill="#272727"/>
<path id="Vector_15" d="M163.192 112.326C162.549 112.508 161.894 112.643 161.232 112.729C160.577 112.821 159.923 112.891 159.265 112.928C158.606 112.965 157.948 112.98 157.286 112.965C156.62 112.958 155.955 112.901 155.297 112.795C155.938 112.612 156.592 112.478 157.253 112.392C157.908 112.296 158.562 112.23 159.22 112.193C159.878 112.156 160.537 112.141 161.199 112.156C161.866 112.163 162.532 112.22 163.192 112.326Z" fill="#272727"/>
<path id="Vector_16" d="M55.7739 87.4036H79.1515V113.368C79.1515 116.469 77.9201 119.442 75.7281 121.634C73.5362 123.827 70.5631 125.059 67.4627 125.06C64.3623 125.059 61.3892 123.827 59.1973 121.634C57.0053 119.442 55.7739 116.469 55.7739 113.368V87.4036Z" fill="#272727"/>
<path id="Vector_17" d="M75.9196 103.477C75.8161 104.775 75.6793 106.066 75.5498 107.363V107.341C75.5979 108.162 75.6238 108.979 75.6571 109.8L75.7273 112.255C75.7294 112.265 75.7294 112.275 75.7273 112.285C75.5646 113.472 75.3945 114.655 75.2023 115.835C75.01 117.014 74.8325 118.197 74.5921 119.373C74.6846 118.179 74.8066 116.988 74.9397 115.798C75.0728 114.607 75.2134 113.424 75.3687 112.237V112.266L75.3058 109.808C75.3058 108.99 75.2725 108.169 75.2762 107.349V107.326C75.4611 106.043 75.6719 104.757 75.9196 103.477ZM69.7369 96.2816C69.3671 99.6945 68.9308 103.104 68.5018 106.513V106.435C68.9345 107.241 69.3412 108.066 69.7591 108.883C70.1769 109.7 70.5948 110.517 70.9942 111.346C71.0069 111.38 71.0069 111.418 70.9942 111.453C70.6872 113.047 70.4025 114.648 70.0734 116.238C69.7443 117.828 69.4226 119.418 69.0639 121.004C69.2932 119.394 69.5397 117.792 69.8035 116.197C70.0549 114.592 70.3581 112.995 70.6318 111.39L70.6503 111.501C70.2287 110.684 69.833 109.856 69.4263 109.031C69.0195 108.206 68.6128 107.389 68.2282 106.554C68.2211 106.528 68.2211 106.501 68.2282 106.476C68.7126 103.074 69.2044 99.676 69.7369 96.2816ZM89.7272 121.008C89.816 124.032 89.853 127.057 89.8825 130.082L89.9047 134.619V139.156V139.111L90.6443 141.859L91.3506 144.61C91.3524 144.619 91.3524 144.629 91.3506 144.639L91.3025 147.804L91.2248 150.97L91.1472 147.804L91.0991 144.639V144.673L90.33 141.936L89.5904 139.196C89.5886 139.182 89.5886 139.167 89.5904 139.152C89.5904 137.64 89.5719 136.127 89.5904 134.615L89.6126 130.078C89.6015 127.057 89.6348 124.032 89.7272 121.008ZM66.0983 92.3066C65.7618 95.3165 65.3587 98.3153 64.9889 101.314L64.3714 105.81C64.1717 107.312 63.9461 108.805 63.7317 110.303V110.259L64.0645 113.08L64.3825 115.901V115.931L63.887 119.077L63.3656 122.202L63.7354 119.055L64.131 115.916V115.949L63.7612 113.132L63.3915 110.314C63.3896 110.299 63.3896 110.284 63.3915 110.27C63.5985 108.772 63.7945 107.271 64.0201 105.777L64.6783 101.27C65.1257 98.282 65.5843 95.2906 66.0983 92.3066ZM90.4631 90.406C90.5408 92.0256 90.5777 93.6415 90.6073 95.261C90.6369 96.8806 90.6332 98.4965 90.648 100.116C90.6628 101.736 90.648 103.351 90.6073 104.967L90.5555 107.397C90.526 108.203 90.5075 109.013 90.4631 109.822C90.4224 109.013 90.4039 108.203 90.3744 107.397L90.3226 104.967C90.293 103.351 90.293 101.732 90.2782 100.116C90.2634 98.5002 90.2782 96.8806 90.3226 95.261C90.367 93.6415 90.3891 92.0256 90.4631 90.406ZM60.0265 104.228C60.0265 105.045 59.9636 105.858 59.9044 106.672C59.8453 107.485 59.7676 108.295 59.6863 109.105C59.6049 109.915 59.5014 110.725 59.383 111.531L59.1981 112.74C59.1242 113.143 59.065 113.546 58.98 113.945C58.98 113.535 59.0059 113.128 59.0207 112.721L59.0983 111.501C59.1538 110.688 59.2351 109.878 59.3202 109.068C59.4052 108.258 59.5014 107.448 59.6234 106.642C59.7454 105.836 59.8712 105.026 60.0265 104.228ZM74.4627 89.3744C74.4627 90.1916 74.3998 91.005 74.3444 91.8185C74.2889 92.632 74.2075 93.4418 74.1225 94.2516C74.0374 95.0614 73.9413 95.8711 73.8193 96.6772L73.6381 97.8863C73.5641 98.2857 73.5013 98.6887 73.4162 99.0881C73.4162 98.6813 73.4421 98.2746 73.4569 97.8642L73.5382 96.6439C73.59 95.8305 73.6751 95.0207 73.7564 94.2109C73.8378 93.4011 73.9413 92.5913 74.0596 91.7852C74.178 90.9792 74.2926 90.1731 74.4627 89.3744ZM61.4649 89.3744C61.4649 90.1916 61.402 91.005 61.3429 91.8185C61.2837 92.632 61.2061 93.4418 61.1247 94.2516C61.0434 95.0614 60.9398 95.8711 60.8178 96.6772L60.6366 97.8863C60.5626 98.2857 60.4998 98.6887 60.4147 99.0881C60.4147 98.6813 60.4443 98.2746 60.4554 97.8642L60.5368 96.6439C60.5922 95.8305 60.6736 95.0207 60.7549 94.2109C60.8363 93.4011 60.9398 92.5913 61.0618 91.7852C61.1839 90.9792 61.3022 90.1731 61.4649 89.3744ZM94.368 140.424C94.4456 142.643 94.4789 144.891 94.5085 147.124C94.5381 149.357 94.5381 151.591 94.5529 153.824C94.5677 156.058 94.5529 158.291 94.5122 160.524L94.4604 163.874C94.4271 164.984 94.4124 166.093 94.368 167.224C94.3273 166.115 94.3088 165.006 94.2792 163.874L94.2275 160.524C94.1979 158.306 94.1979 156.058 94.1831 153.824C94.1683 151.591 94.1831 149.357 94.2275 147.124C94.2718 144.891 94.294 142.657 94.368 140.424Z" fill="#272727"/>
<path id="Vector_18" d="M94.4752 32.612C93.9464 32.4308 93.4176 32.2422 92.8925 32.0869C92.6263 32.0056 92.3637 31.9094 92.1012 31.8429C91.8375 31.8144 91.5711 31.8232 91.3099 31.8687H82.9972V58.329C83.0101 58.6563 82.9953 58.9841 82.9528 59.3089C82.9455 59.4755 82.9732 59.6418 83.0342 59.797L83.1932 60.2888L83.5112 61.2686C83.9512 62.5739 84.4245 63.8792 84.9903 65.1844C85.545 63.8792 86.0183 62.5739 86.4694 61.2686L86.7874 60.2888L86.9465 59.797C87.0075 59.6418 87.0352 59.4755 87.0278 59.3089C86.9854 58.9841 86.9705 58.6563 86.9834 58.329V35.8289H91.3025C91.5637 35.8745 91.8301 35.8832 92.0938 35.8548C92.3563 35.7845 92.6189 35.6921 92.8851 35.6107C93.4102 35.4481 93.939 35.2632 94.4678 35.0857C95.5217 34.7159 96.5755 34.3129 97.6331 33.847C96.5974 33.3932 95.544 32.9812 94.4752 32.612Z" fill="#272727"/>
<path id="Vector_19" d="M131.912 37.0196L127.452 53.5443C127.245 52.9949 127.074 52.433 126.938 51.8619L130.636 38.2028C131.034 37.7795 131.46 37.3841 131.912 37.0196ZM128.765 40.5952L126.524 48.8964C126.419 45.9668 127.2 43.0737 128.765 40.5952ZM134.308 35.4259L128.721 56.1326C128.485 55.752 128.269 55.3596 128.073 54.9568L133.165 36.0988C133.532 35.8505 133.913 35.6258 134.308 35.4259ZM136.608 34.446L130.214 58.1109C129.951 57.832 129.704 57.5381 129.475 57.2308L135.525 34.8232C135.877 34.6748 136.239 34.5488 136.608 34.446ZM138.79 33.9061L131.83 59.6934C131.559 59.4732 131.3 59.2387 131.054 58.9909L137.769 34.1132C137.816 34.0983 137.865 34.0859 137.913 34.0762C138.202 34.0097 138.498 33.9542 138.79 33.9061ZM140.831 33.7139L133.494 60.8841C133.213 60.714 132.943 60.5143 132.677 60.3368L139.851 33.7693C140.176 33.7324 140.503 33.7139 140.831 33.7139ZM142.776 33.7878L135.218 61.7937C134.922 61.6643 134.641 61.5312 134.363 61.3796L141.829 33.725C142.146 33.7271 142.462 33.7481 142.776 33.7878ZM144.721 34.128L137.067 62.4778C136.766 62.3952 136.471 62.2952 136.183 62.1783L143.811 33.932C144.115 33.9838 144.425 34.0319 144.721 34.128ZM146.603 34.7344L139.004 62.9104C138.697 62.866 138.394 62.8142 138.083 62.7403L145.723 34.4016C146.023 34.4947 146.317 34.6058 146.603 34.7344ZM148.434 35.6034L141.016 63.0805C140.698 63.0805 140.372 63.0583 140.062 63.0324L147.59 35.1412C147.879 35.2965 148.156 35.4407 148.434 35.6034ZM150.16 36.7459L143.072 62.9511C142.744 63.0044 142.413 63.0378 142.081 63.0509L149.358 36.1691C149.636 36.346 149.904 36.5386 150.16 36.7459ZM151.806 38.2213L145.25 62.5036C144.998 62.5813 144.747 62.6479 144.51 62.707C144.416 62.7321 144.321 62.7518 144.225 62.7662L151.055 37.4744C151.318 37.7104 151.569 37.9597 151.806 38.2213ZM153.3 40.0516L147.457 61.6828C147.105 61.8576 146.742 62.0107 146.37 62.1413L152.59 39.0976C152.848 39.3989 153.085 39.7177 153.3 40.0516ZM154.627 42.4181L149.798 60.3073C149.425 60.585 149.035 60.8382 148.63 61.0653L154.002 41.1572C154.235 41.565 154.444 41.986 154.627 42.4181ZM155.7 45.9567L152.512 57.7596C152.103 58.2736 151.652 58.7522 151.163 59.1906L155.249 44.0488C155.352 44.3852 155.448 44.7402 155.526 45.0915C155.593 45.3799 155.644 45.672 155.7 45.9567ZM154.317 54.9974L155.877 49.2254C155.765 51.2371 155.233 53.203 154.317 54.9974Z" fill="#FFEDC5"/>
<path id="Vector_20" d="M145.919 170.353C149.938 170.353 153.196 164.707 153.196 157.744C153.196 150.78 149.938 145.135 145.919 145.135C141.9 145.135 138.642 150.78 138.642 157.744C138.642 164.707 141.9 170.353 145.919 170.353Z" stroke="#272727" stroke-miterlimit="10"/>
<path id="Vector_21" d="M152.161 163.29C153.196 160.898 152.416 159.433 152.416 157.744C152.416 154.183 151.222 150.152 149.088 147.623C148.515 149.434 148.21 151.319 148.182 153.218C148.193 156.793 150.038 160.761 152.161 163.29Z" fill="#272727"/>
<path id="Vector_22" d="M157.116 165.853C161.135 165.853 164.393 160.207 164.393 153.244C164.393 146.28 161.135 140.635 157.116 140.635C153.097 140.635 149.839 146.28 149.839 153.244C149.839 160.207 153.097 165.853 157.116 165.853Z" fill="white"/>
<path id="Vector_23" d="M139.248 158.139C139.248 159.548 138.679 160.672 139.455 162.576C142.783 159.907 145.313 155.433 145.313 150.822C145.268 149.197 145.031 147.584 144.606 146.015C141.264 148.659 139.248 153.528 139.248 158.139Z" fill="#272727"/>
<path id="Vector_24" d="M136.734 162.706C140.753 162.706 144.011 157.061 144.011 150.097C144.011 143.133 140.753 137.488 136.734 137.488C132.715 137.488 129.457 143.133 129.457 150.097C129.457 157.061 132.715 162.706 136.734 162.706Z" fill="white"/>
<path id="Vector_25" d="M145.919 170.353V151.443M145.919 158.849L142.972 155.481M145.919 162.872L141.67 158.017M145.919 167.017L141.533 162.003M145.919 158.857L149.491 154.771M145.919 162.88L150.304 157.866M145.919 167.025L150.304 162.011" stroke="#272727" stroke-linecap="round" stroke-linejoin="round"/>
<path id="Vector_26" d="M136.734 162.706C140.753 162.706 144.011 157.061 144.011 150.097C144.011 143.133 140.753 137.488 136.734 137.488C132.715 137.488 129.457 143.133 129.457 150.097C129.457 157.061 132.715 162.706 136.734 162.706Z" stroke="#272727" stroke-miterlimit="10"/>
<path id="Vector_27" d="M136.734 143.796V170.401M136.734 151.203L133.169 147.124M136.734 155.226L132.348 150.212M136.734 159.371L132.348 154.357M136.734 151.21L140.31 147.124M136.734 155.233L141.119 150.219M136.734 159.378L141.119 154.364" stroke="#272727" stroke-linecap="round" stroke-linejoin="round"/>
<path id="Vector_28" d="M157.116 165.853C161.135 165.853 164.393 160.207 164.393 153.244C164.393 146.28 161.135 140.635 157.116 140.635C153.097 140.635 149.839 146.28 149.839 153.244C149.839 160.207 153.097 165.853 157.116 165.853Z" stroke="#272727" stroke-linecap="round" stroke-linejoin="round"/>
<path id="Vector_29" d="M157.116 146.943V170.401M157.116 154.349L153.548 150.271M157.116 158.372L152.73 153.355M157.116 162.517L152.73 157.503M157.116 154.357L160.688 150.271M157.116 158.38L161.502 153.366M157.116 162.525L161.502 157.511" stroke="#272727" stroke-linecap="round" stroke-linejoin="round"/>
<path id="Vector_30" d="M37.5107 170.512C41.5298 170.512 44.788 164.866 44.788 157.903C44.788 150.939 41.5298 145.294 37.5107 145.294C33.4915 145.294 30.2334 150.939 30.2334 157.903C30.2334 164.866 33.4915 170.512 37.5107 170.512Z" stroke="#272727" stroke-miterlimit="10"/>
<path id="Vector_31" d="M43.7523 163.449C44.7914 161.06 44.0074 159.596 44.0074 157.903C44.0074 154.342 42.8167 150.311 40.6794 147.782C40.1052 149.593 39.8 151.478 39.7734 153.377C39.7882 156.938 41.6297 160.92 43.7523 163.449Z" fill="#272727"/>
<path id="Vector_32" d="M48.7075 166.012C52.7266 166.012 55.9847 160.366 55.9847 153.403C55.9847 146.439 52.7266 140.794 48.7075 140.794C44.6883 140.794 41.4302 146.439 41.4302 153.403C41.4302 160.366 44.6883 166.012 48.7075 166.012Z" fill="white"/>
<path id="Vector_33" d="M30.8435 158.298C30.8435 159.707 30.2704 160.831 31.0506 162.736C34.3786 160.07 36.9042 155.592 36.9042 150.981C36.8613 149.356 36.6255 147.743 36.2017 146.174C32.8773 148.818 30.8435 153.687 30.8435 158.298Z" fill="#272727"/>
<path id="Vector_34" d="M28.329 162.865C32.3482 162.865 35.6063 157.22 35.6063 150.256C35.6063 143.292 32.3482 137.647 28.329 137.647C24.3099 137.647 21.0518 143.292 21.0518 150.256C21.0518 157.22 24.3099 162.865 28.329 162.865Z" fill="white"/>
<path id="Vector_35" d="M37.5106 170.512V151.606M37.5106 159.008L34.5634 155.64M37.5106 163.031L33.2655 158.176M37.5106 167.18L33.125 162.162M37.5106 159.019L41.0864 154.93M37.5106 163.039L41.8962 158.025M37.5106 167.187L41.8962 162.173" stroke="#272727" stroke-linecap="round" stroke-linejoin="round"/>
<path id="Vector_36" d="M28.329 162.865C32.3482 162.865 35.6063 157.22 35.6063 150.256C35.6063 143.292 32.3482 137.647 28.329 137.647C24.3099 137.647 21.0518 143.292 21.0518 150.256C21.0518 157.22 24.3099 162.865 28.329 162.865Z" stroke="#272727" stroke-miterlimit="10"/>
<path id="Vector_37" d="M28.329 143.959V170.563M28.329 151.362L24.7606 147.283M28.329 155.385L23.9434 150.371M28.329 159.53L23.9434 154.516M28.329 151.373L31.901 147.283M28.329 155.392L32.7146 150.378M28.329 159.541L32.7146 154.527" stroke="#272727" stroke-linecap="round" stroke-linejoin="round"/>
<path id="Vector_38" d="M48.7075 166.012C52.7266 166.012 55.9847 160.366 55.9847 153.403C55.9847 146.439 52.7266 140.794 48.7075 140.794C44.6883 140.794 41.4302 146.439 41.4302 153.403C41.4302 160.366 44.6883 166.012 48.7075 166.012Z" stroke="black" stroke-linecap="round" stroke-linejoin="round"/>
<path id="Vector_39" d="M48.7074 147.102V170.563M48.7074 154.508L45.1427 150.43M48.7074 158.531L44.3218 153.517M48.7074 162.676L44.3218 157.662M48.7074 154.516L52.2832 150.43M48.7074 158.539L53.093 153.525M48.7074 162.684L53.093 157.67" stroke="black" stroke-linecap="round" stroke-linejoin="round"/>
<path id="Vector_40" d="M86.1255 156.908H100.111C103.722 156.908 107.185 158.342 109.738 160.896C112.291 163.449 113.726 166.912 113.726 170.523H72.5176C72.5176 166.913 73.951 163.451 76.5028 160.898C79.0546 158.345 82.5158 156.91 86.1255 156.908Z" fill="#A3A3A3"/>
<path id="Vector_41" d="M77.957 166.466C77.957 166.667 77.8772 166.86 77.735 167.002C77.5928 167.145 77.4 167.224 77.199 167.224C76.9979 167.224 76.8051 167.145 76.6629 167.002C76.5208 166.86 76.4409 166.667 76.4409 166.466C76.4409 166.049 76.9623 166.074 77.3839 166.074C77.8054 166.074 77.957 166.037 77.957 166.466ZM85.2343 162.092C85.2343 162.883 84.4097 163.157 83.6184 163.157C83.4241 163.167 83.2298 163.137 83.0474 163.07C82.8649 163.002 82.6981 162.898 82.5571 162.764C82.4161 162.63 82.3038 162.469 82.2271 162.29C82.1504 162.111 82.1108 161.919 82.1108 161.724C82.1108 161.53 82.1504 161.337 82.2271 161.158C82.3038 160.98 82.4161 160.818 82.5571 160.684C82.6981 160.55 82.8649 160.446 83.0474 160.379C83.2298 160.311 83.4241 160.281 83.6184 160.291C84.4097 160.291 85.2343 161.301 85.2343 162.092ZM97.7625 162.262C97.7625 162.643 97.6113 163.008 97.3422 163.277C97.0732 163.546 96.7082 163.697 96.3277 163.697C95.5364 163.697 95.0779 163.42 95.0779 162.628C95.0779 161.837 95.5364 160.827 96.3277 160.827C96.7082 160.827 97.0732 160.979 97.3422 161.248C97.6113 161.517 97.7625 161.882 97.7625 162.262ZM111.097 167.332C111.097 168.127 110.272 168.4 109.481 168.4C109.1 168.4 108.735 168.249 108.466 167.98C108.197 167.711 108.046 167.346 108.046 166.966C108.046 166.174 108.871 165.901 109.662 165.901C109.85 165.9 110.037 165.937 110.211 166.009C110.385 166.08 110.543 166.186 110.676 166.318C110.81 166.451 110.915 166.609 110.987 166.783C111.06 166.957 111.097 167.143 111.097 167.332ZM90.4112 167.749C90.4112 168.129 90.2606 168.494 89.9923 168.763C89.724 169.032 89.3601 169.183 88.9802 169.184C88.1888 169.184 87.3605 168.175 87.3605 167.383C87.3605 167.003 87.5117 166.638 87.7808 166.369C88.0498 166.1 88.4148 165.949 88.7953 165.949C89.5866 165.949 90.4112 166.958 90.4112 167.749ZM101.804 167.62C101.804 168.016 101.482 167.938 101.087 167.938C100.691 167.938 100.554 167.986 100.554 167.59C100.554 167.4 100.63 167.218 100.764 167.083C100.899 166.949 101.081 166.873 101.272 166.873C101.656 166.873 101.804 167.224 101.804 167.62ZM105.428 160.121C105.428 160.517 105.291 161.208 104.896 161.208C104.705 161.208 104.523 161.133 104.388 160.998C104.254 160.864 104.178 160.681 104.178 160.491C104.178 160.095 104.315 159.408 104.714 159.408C104.808 159.407 104.901 159.425 104.988 159.461C105.075 159.497 105.154 159.549 105.22 159.616C105.286 159.682 105.339 159.761 105.375 159.848C105.41 159.934 105.429 160.027 105.428 160.121ZM92.4783 158.846C92.4783 159.319 91.9125 159.33 91.4429 159.33C91.2174 159.33 91.001 159.24 90.8415 159.081C90.682 158.921 90.5924 158.705 90.5924 158.479C90.5924 158.254 90.682 158.038 90.8415 157.878C91.001 157.719 91.2174 157.629 91.4429 157.629C91.9125 157.629 92.4783 158.376 92.4783 158.846Z" fill="#7F7F7F"/>
<path id="Vector_42" d="M21.0518 170.563H165.2" stroke="#545454" stroke-linecap="round" stroke-linejoin="round"/>
</g>
</g>
</svg>
