<svg width="19" height="21" viewBox="0 0 19 21" fill="none" xmlns="http://www.w3.org/2000/svg">
<path d="M9.6566 8.81464C9.28405 8.81464 8.9751 8.50569 8.9751 8.13317V5.10729C8.9751 4.73473 9.28405 4.42578 9.6566 4.42578C10.0292 4.42578 10.3381 4.73473 10.3381 5.10729V8.13317C10.3381 8.51478 10.0292 8.81464 9.6566 8.81464Z" fill="white"/>
<path d="M9.67444 17.7471C7.33003 17.7471 4.99474 17.3745 2.76849 16.6294C1.94159 16.3568 1.31461 15.7662 1.042 15.021C0.769403 14.2759 0.86027 13.4218 1.30552 12.6767L2.45954 10.7503C2.71397 10.3232 2.94113 9.52356 2.94113 9.02379V7.1156C2.94113 3.39912 5.95793 0.382324 9.67444 0.382324C13.3909 0.382324 16.4077 3.39912 16.4077 7.1156V9.02379C16.4077 9.51447 16.6349 10.3232 16.8893 10.7503L18.0433 12.6767C18.4704 13.3854 18.5431 14.2305 18.2614 15.0029C17.9797 15.7752 17.3618 16.3659 16.5804 16.6294C14.3541 17.3836 12.0188 17.7471 9.67444 17.7471ZM9.67444 1.75442C6.71213 1.75442 4.30415 4.16241 4.30415 7.12469V9.03288C4.30415 9.7689 4.01337 10.8321 3.63173 11.459L2.47771 13.3945C2.24146 13.7852 2.18693 14.2032 2.32324 14.5667C2.45954 14.9302 2.76849 15.2028 3.20465 15.3482C7.38455 16.7384 11.9825 16.7384 16.1624 15.3482C16.5531 15.2209 16.853 14.9302 16.9893 14.5485C17.1347 14.1669 17.0892 13.7489 16.8802 13.3945L15.7262 11.4681C15.3446 10.8411 15.0538 9.77799 15.0538 9.04196V7.13377C15.0447 4.16241 12.6367 1.75442 9.67444 1.75442Z" fill="white"/>
<path d="M9.6561 20.0638C8.68382 20.0638 7.72973 19.664 7.03914 18.9734C6.34855 18.2828 5.94873 17.3287 5.94873 16.3564H7.31174C7.31174 16.9743 7.56617 17.5741 8.00232 18.0102C8.43848 18.4464 9.0382 18.7008 9.6561 18.7008C10.9464 18.7008 12.0005 17.6468 12.0005 16.3564H13.3635C13.3635 18.401 11.7006 20.0638 9.6561 20.0638Z" fill="white"/>
</svg>
