<svg width="15" height="15" viewBox="0 0 15 15" fill="none" xmlns="http://www.w3.org/2000/svg">
<path d="M7.5 0C3.35789 0 0 3.35789 0 7.5C0 11.6421 3.35789 15 7.5 15C11.6421 15 15 11.6421 15 7.5C15 3.35789 11.6421 0 7.5 0ZM11.7122 7.26562C11.6798 5.95734 11.3808 4.71609 10.8654 3.59367C11.487 3.35414 12.0769 3.05063 12.6267 2.69039C13.7573 3.89508 14.4675 5.49727 14.5256 7.26562H11.7122ZM7.81242 14.5233C7.78664 14.5245 7.76039 14.5245 7.73438 14.5254V11.727C8.51344 11.7473 9.26883 11.8631 9.98555 12.0715C9.41812 13.0174 8.67867 13.8478 7.81242 14.5233ZM10.4412 12.2205C10.9762 12.4083 11.487 12.6464 11.97 12.9279C11.0346 13.699 9.89602 14.2317 8.64703 14.4368C9.35203 13.7955 9.95719 13.0481 10.4412 12.2205ZM5.01422 12.0715C5.73117 11.8629 6.48656 11.7473 7.26562 11.727V14.5252C7.23961 14.5242 7.21336 14.5242 7.18758 14.523C6.32109 13.8478 5.58187 13.0174 5.01422 12.0715ZM6.35273 14.4366C5.10375 14.2317 3.96516 13.699 3.02977 12.9277C3.51305 12.6464 4.02352 12.408 4.55859 12.2205C5.04258 13.0481 5.64797 13.7955 6.35273 14.4366ZM0.474609 7.26562C0.532734 5.49727 1.24266 3.89508 2.37352 2.69039C2.92336 3.05039 3.51305 3.35391 4.13484 3.59367C3.61922 4.71609 3.32016 5.95734 3.28781 7.26562H0.474609ZM10.2117 3.32719C9.42773 3.57773 8.59594 3.71859 7.73438 3.74109V0.474609C7.76039 0.475547 7.78664 0.475547 7.81242 0.476719C8.79867 1.24547 9.62039 2.21555 10.2117 3.32719ZM8.64727 0.563438C10.0404 0.792188 11.2952 1.42969 12.285 2.34984C11.775 2.67586 11.2313 2.95219 10.6575 3.16992C10.1433 2.18578 9.46148 1.30359 8.64727 0.563438ZM7.26562 0.474609V3.74109C6.40383 3.71859 5.57203 3.57797 4.78828 3.32719C5.37961 2.21555 6.20133 1.24547 7.18758 0.476719C7.21336 0.475547 7.23961 0.475547 7.26562 0.474609ZM4.34273 3.16992C3.76898 2.95219 3.225 2.67586 2.71523 2.34984C3.705 1.42969 4.95961 0.792188 6.35297 0.563438C5.53852 1.30359 4.85672 2.18578 4.34273 3.16992ZM4.57781 3.75211C5.42672 4.03078 6.32906 4.19109 7.26562 4.2143V7.26562H3.75727C3.78984 6.01266 4.07883 4.82438 4.57781 3.75211ZM7.26562 7.73438V11.2584C6.40219 11.28 5.56758 11.4143 4.77773 11.6543C4.15594 10.4794 3.79406 9.14742 3.75727 7.73438H7.26562ZM7.73438 11.2584V7.73438H11.2427C11.2062 9.14742 10.8441 10.4794 10.2223 11.6545C9.43242 11.4143 8.59781 11.28 7.73438 11.2584ZM7.73438 7.26562V4.21406C8.67094 4.19086 9.57328 4.03078 10.4222 3.75187C10.9212 4.82414 11.2102 6.01266 11.2427 7.26539L7.73438 7.26562ZM0.474609 7.73438H3.28781C3.32391 9.19992 3.69563 10.5811 4.33008 11.8052C3.74508 12.0159 3.18844 12.2843 2.66391 12.6012C1.3657 11.3702 0.537656 9.64969 0.474609 7.73438ZM12.3361 12.6014C11.8116 12.2843 11.2549 12.0162 10.6699 11.8055C11.3044 10.5811 11.6761 9.20016 11.7122 7.73461H14.5254C14.4623 9.64969 13.6343 11.3702 12.3361 12.6014Z" fill="#231F20"/>
</svg>
