<svg width="64" height="64" viewBox="0 0 64 64" fill="none" xmlns="http://www.w3.org/2000/svg">
<g clip-path="url(#clip0_2540_1008)">
<path d="M32 64C49.6731 64 64 49.6731 64 32C64 14.3269 49.6731 0 32 0C14.3269 0 0 14.3269 0 32C0 49.6731 14.3269 64 32 64Z" fill="black"/>
<path d="M48.5517 32L24.2759 48.5517V32.3012V15.4482L48.5517 32Z" fill="white"/>
<path d="M24.2758 49.655C24.0993 49.655 23.9216 49.613 23.7605 49.527C23.3986 49.3361 23.1724 48.9609 23.1724 48.5515V15.4481C23.1724 15.0387 23.3986 14.6635 23.7605 14.4726C24.1224 14.2806 24.5594 14.3071 24.8982 14.5366L49.174 31.0883C49.4742 31.2936 49.6551 31.6345 49.6551 31.9998C49.6551 32.365 49.4742 32.706 49.1729 32.9112L24.8971 49.463C24.7106 49.5899 24.4932 49.655 24.2758 49.655ZM25.3793 17.5369V46.4638L46.5931 31.9998L25.3793 17.5369Z" fill="white"/>
</g>
<defs>
<clipPath id="clip0_2540_1008">
<rect width="64" height="64" fill="white"/>
</clipPath>
</defs>
</svg>
