<svg width="28" height="28" viewBox="0 0 28 28" fill="none" xmlns="http://www.w3.org/2000/svg">
<path d="M14.22 15.9092H14.0101C11.207 15.8228 9.10781 13.6371 9.10781 10.9452C9.10781 8.20381 11.3429 5.96875 14.0842 5.96875C16.8256 5.96875 19.0606 8.20381 19.0606 10.9452C19.0632 12.2349 18.5629 13.4749 17.666 14.4017C16.7691 15.3286 15.5462 15.8694 14.2571 15.9092H14.22ZM14.0719 7.80866C12.3431 7.80866 10.9477 9.21638 10.9477 10.9328C10.944 11.7413 11.2551 12.5196 11.8152 13.1027C12.3753 13.6858 13.1404 14.0281 13.9484 14.057C14.0426 14.0439 14.1382 14.0439 14.2324 14.057C15.0323 14.0143 15.7854 13.6666 16.3367 13.0854C16.888 12.5043 17.1956 11.7339 17.196 10.9328C17.196 9.21638 15.8006 7.80866 14.0719 7.80866ZM14.0719 27.2944C10.7501 27.2944 7.5766 26.0596 5.11927 23.8122C5.01297 23.7144 4.93087 23.5931 4.87944 23.4581C4.828 23.3231 4.80865 23.178 4.82291 23.0342C4.98344 21.5648 5.89722 20.1941 7.41607 19.1815C11.0959 16.7366 17.0602 16.7366 20.7277 19.1815C22.2465 20.2065 23.1603 21.5648 23.3208 23.0342C23.3579 23.3306 23.2467 23.6146 23.0245 23.8122C20.5822 26.054 17.387 27.2968 14.0719 27.2944ZM6.76161 22.7873C8.81054 24.504 11.3988 25.444 14.0719 25.4422C16.7515 25.4422 19.3323 24.5037 21.3821 22.7873C21.1598 22.034 20.5671 21.3055 19.6904 20.7127C16.6527 18.6876 11.5034 18.6876 8.44099 20.7127C7.56426 21.3055 6.98388 22.034 6.76161 22.7873Z" fill="#272727"/>
<path d="M14.0719 27.2944C6.74929 27.2944 0.797363 21.3425 0.797363 14.0199C0.797363 6.69729 6.74929 0.745361 14.0719 0.745361C21.3945 0.745361 27.3464 6.69729 27.3464 14.0199C27.3464 21.3425 21.3945 27.2944 14.0719 27.2944ZM14.0719 2.59762C7.77421 2.59762 2.64962 7.72221 2.64962 14.0199C2.64962 20.3176 7.77421 25.4422 14.0719 25.4422C20.3696 25.4422 25.4942 20.3176 25.4942 14.0199C25.4942 7.72221 20.3696 2.59762 14.0719 2.59762Z" fill="#272727"/>
</svg>
