<svg width="26" height="26" viewBox="0 0 26 26" fill="none" xmlns="http://www.w3.org/2000/svg">
<path d="M21.6706 0H19.2006C16.3666 0 14.8716 1.495 14.8716 4.329V6.799C14.8716 9.633 16.3666 11.128 19.2006 11.128H21.6706C24.5046 11.128 25.9996 9.633 25.9996 6.799V4.329C25.9996 1.495 24.5046 0 21.6706 0Z" fill="#292D32"/>
<path d="M6.812 14.8586H4.342C1.495 14.8586 0 16.3536 0 19.1876V21.6576C0 24.5046 1.495 25.9996 4.329 25.9996H6.799C9.633 25.9996 11.128 24.5046 11.128 21.6706V19.2006C11.141 16.3536 9.646 14.8586 6.812 14.8586Z" fill="#292D32"/>
<path d="M5.577 11.154C8.65709 11.154 11.154 8.65709 11.154 5.577C11.154 2.49691 8.65709 0 5.577 0C2.49691 0 0 2.49691 0 5.577C0 8.65709 2.49691 11.154 5.577 11.154Z" fill="#292D32"/>
<path d="M20.4227 26.0024C23.5028 26.0024 25.9997 23.5055 25.9997 20.4254C25.9997 17.3453 23.5028 14.8484 20.4227 14.8484C17.3426 14.8484 14.8457 17.3453 14.8457 20.4254C14.8457 23.5055 17.3426 26.0024 20.4227 26.0024Z" fill="#292D32"/>
</svg>
