<svg width="26" height="26" viewBox="0 0 26 26" fill="none" xmlns="http://www.w3.org/2000/svg">
<path d="M21.4652 11.4884H19.0466C16.1201 11.4884 14.5117 9.88 14.5117 6.95349V4.53488C14.5117 1.60837 16.1201 0 19.0466 0H21.4652C24.3917 0 26.0001 1.60837 26.0001 4.53488V6.95349C26.0001 9.88 24.3917 11.4884 21.4652 11.4884ZM19.0466 1.81395C17.1359 1.81395 16.3257 2.62419 16.3257 4.53488V6.95349C16.3257 8.86419 17.1359 9.67442 19.0466 9.67442H21.4652C23.3759 9.67442 24.1861 8.86419 24.1861 6.95349V4.53488C24.1861 2.62419 23.3759 1.81395 21.4652 1.81395H19.0466Z" fill="#292D32"/>
<path d="M6.95349 26.0001H4.53488C1.60837 26.0001 0 24.3917 0 21.4652V19.0466C0 16.1201 1.60837 14.5117 4.53488 14.5117H6.95349C9.88 14.5117 11.4884 16.1201 11.4884 19.0466V21.4652C11.4884 24.3917 9.88 26.0001 6.95349 26.0001ZM4.53488 16.3257C2.62419 16.3257 1.81395 17.1359 1.81395 19.0466V21.4652C1.81395 23.3759 2.62419 24.1861 4.53488 24.1861H6.95349C8.86419 24.1861 9.67442 23.3759 9.67442 21.4652V19.0466C9.67442 17.1359 8.86419 16.3257 6.95349 16.3257H4.53488Z" fill="#292D32"/>
<path d="M5.74419 11.4884C2.57581 11.4884 0 8.91256 0 5.74419C0 2.57581 2.57581 0 5.74419 0C8.91256 0 11.4884 2.57581 11.4884 5.74419C11.4884 8.91256 8.91256 11.4884 5.74419 11.4884ZM5.74419 1.81395C3.57954 1.81395 1.81395 3.57954 1.81395 5.74419C1.81395 7.90884 3.57954 9.67442 5.74419 9.67442C7.90884 9.67442 9.67442 7.90884 9.67442 5.74419C9.67442 3.57954 7.90884 1.81395 5.74419 1.81395Z" fill="#292D32"/>
<path d="M20.2559 26.0001C17.0875 26.0001 14.5117 23.4243 14.5117 20.2559C14.5117 17.0875 17.0875 14.5117 20.2559 14.5117C23.4243 14.5117 26.0001 17.0875 26.0001 20.2559C26.0001 23.4243 23.4243 26.0001 20.2559 26.0001ZM20.2559 16.3257C18.0913 16.3257 16.3257 18.0913 16.3257 20.2559C16.3257 22.4206 18.0913 24.1861 20.2559 24.1861C22.4206 24.1861 24.1861 22.4206 24.1861 20.2559C24.1861 18.0913 22.4206 16.3257 20.2559 16.3257Z" fill="#292D32"/>
</svg>
