<svg width="15" height="15" viewBox="0 0 15 15" fill="none" xmlns="http://www.w3.org/2000/svg">
<path d="M8.67258 0.769345C8.22502 0.222717 7.3891 0.222719 6.94161 0.769345L6.30762 1.54368C6.26417 1.59675 6.19169 1.61618 6.12752 1.59194L5.19132 1.23833C4.53044 0.988706 3.8065 1.40666 3.69224 2.10382L3.53038 3.0914C3.51928 3.15909 3.46622 3.21215 3.39853 3.22325L2.41095 3.38511C1.7138 3.49937 1.29583 4.2233 1.54545 4.88419L1.89907 5.82039C1.92331 5.88456 1.90388 5.95704 1.85081 6.00049L1.07647 6.63445C0.529847 7.082 0.529848 7.91793 1.07647 8.36548L1.85081 8.99942C1.90388 9.04289 1.92331 9.11537 1.89907 9.17954L1.54545 10.1158C1.29583 10.7766 1.71379 11.5005 2.41095 11.6148L3.39853 11.7767C3.46622 11.7878 3.51928 11.8408 3.53038 11.9085L3.69224 12.8961C3.8065 13.5932 4.53043 14.0112 5.19132 13.7616L6.12752 13.408C6.19169 13.3838 6.26417 13.4031 6.30762 13.4562L6.94161 14.2306C7.3891 14.7772 8.22502 14.7772 8.67258 14.2306L9.30652 13.4562C9.34998 13.4031 9.42247 13.3838 9.48664 13.408L10.4228 13.7616C11.0838 14.0112 11.8077 13.5932 11.9219 12.8961L12.0838 11.9085C12.0949 11.8408 12.1479 11.7878 12.2156 11.7767L13.2032 11.6148C13.9004 11.5005 14.3183 10.7766 14.0687 10.1158L13.7151 9.17954C13.6909 9.11537 13.7103 9.04289 13.7633 8.99942L14.5377 8.36548C15.0843 7.91793 15.0843 7.082 14.5377 6.63445L13.7633 6.00049C13.7103 5.95704 13.6909 5.88456 13.7151 5.82039L14.0687 4.88419C14.3183 4.2233 13.9004 3.49937 13.2032 3.38511L12.2156 3.22325C12.1479 3.21215 12.0949 3.15909 12.0838 3.0914L11.9219 2.10382C11.8077 1.40667 11.0838 0.988699 10.4228 1.23833L9.48664 1.59194C9.42247 1.61618 9.34998 1.59675 9.30652 1.54368L8.67258 0.769345Z" fill="#272727"/>
<path fill-rule="evenodd" clip-rule="evenodd" d="M11.6614 4.92385C11.8486 5.11106 11.8486 5.4146 11.6614 5.60181L7.18708 10.0761C7.09722 10.166 6.97526 10.2165 6.84813 10.2165C6.72099 10.2165 6.59904 10.166 6.50915 10.0761L3.95242 7.51934C3.76521 7.33212 3.76521 7.02864 3.95242 6.84142C4.13963 6.6542 4.44316 6.6542 4.63037 6.84142L6.84813 9.05913L10.9834 4.92385C11.1707 4.73664 11.4741 4.73664 11.6614 4.92385Z" fill="#ECEFF1"/>
</svg>
